<svg width="730" height="165" viewBox="0 0 730 165" fill="none" xmlns="http://www.w3.org/2000/svg">
<mask id="path-1-outside-1_41_173" maskUnits="userSpaceOnUse" x="-0.855957" y="22" width="731" height="143" fill="black">
<rect fill="white" x="-0.855957" y="22" width="731" height="143"/>
<path d="M16 119V40.268H71.62V51.392H28.852V74.288H66.436V85.304H28.852V119H16ZM100.316 120.08C86.6 120.08 78.824 111.872 78.824 99.02V57.872H91.46V97.508C91.46 104.852 96.104 108.848 103.34 108.848C112.196 108.848 118.244 103.124 118.46 94.592V57.872H131.096V119H119.432L118.892 110.036C114.896 116.408 108.092 120.08 100.316 120.08ZM162.105 119.756C153.357 119.756 149.037 115.868 149.037 108.524V67.268L140.937 67.376V57.872L149.037 57.98V41.132L161.349 40.052V57.98L171.285 57.872V67.376L161.349 67.268V103.664C161.349 108.092 162.321 109.28 166.317 109.28C168.477 109.28 170.097 109.064 171.285 108.74V118.676C168.045 119.432 164.805 119.756 162.105 119.756ZM202.621 120.08C188.905 120.08 181.129 111.872 181.129 99.02V57.872H193.765V97.508C193.765 104.852 198.409 108.848 205.645 108.848C214.501 108.848 220.549 103.124 220.765 94.592V57.872H233.401V119H221.737L221.197 110.036C217.201 116.408 210.397 120.08 202.621 120.08ZM248.101 119V57.872H259.441L260.197 67.052C263.329 60.572 268.297 57.116 274.885 57.116C277.045 57.116 278.773 57.332 279.961 57.764V69.644H279.205C278.017 69.212 276.397 68.996 274.777 68.996C266.785 68.996 261.601 74.072 260.737 82.064V119H248.101ZM313.06 120.08C295.348 120.08 283.36 108.524 283.36 88.544C283.36 69.32 294.268 56.792 312.628 56.792C330.34 56.792 341.788 68.564 340.168 91.676H295.888C296.86 104.096 303.016 109.928 313.168 109.928C321.7 109.928 327.208 105.932 328.504 99.02L339.52 101.72C337.252 112.736 327.208 120.08 313.06 120.08ZM312.412 66.512C303.88 66.512 297.616 71.48 296.104 82.604H327.316C327.532 72.884 322.024 66.512 312.412 66.512ZM402.076 120.08C384.364 120.08 372.376 108.524 372.376 88.544C372.376 69.32 383.284 56.792 401.644 56.792C419.356 56.792 430.804 68.564 429.184 91.676H384.904C385.876 104.096 392.032 109.928 402.184 109.928C410.716 109.928 416.224 105.932 417.52 99.02L428.536 101.72C426.268 112.736 416.224 120.08 402.076 120.08ZM401.428 66.512C392.896 66.512 386.632 71.48 385.12 82.604H416.332C416.548 72.884 411.04 66.512 401.428 66.512ZM455.421 119L431.877 57.872H445.485L455.313 85.952C458.337 94.484 460.065 99.776 462.549 107.984C464.709 100.424 467.193 92.864 469.569 85.952L479.505 57.872H492.465L469.353 119H455.421ZM525.685 120.08C507.973 120.08 495.985 108.524 495.985 88.544C495.985 69.32 506.893 56.792 525.253 56.792C542.965 56.792 554.413 68.564 552.793 91.676H508.513C509.485 104.096 515.641 109.928 525.793 109.928C534.325 109.928 539.833 105.932 541.129 99.02L552.145 101.72C549.877 112.736 539.833 120.08 525.685 120.08ZM525.037 66.512C516.505 66.512 510.241 71.48 508.729 82.604H539.941C540.157 72.884 534.649 66.512 525.037 66.512ZM563.558 119V57.872H575.114L575.762 66.836C580.838 59.924 587.102 56.792 595.418 56.792C607.73 56.792 616.37 63.812 616.37 78.068V119H603.842V79.58C603.842 72.344 599.63 67.916 591.53 67.916C583.214 67.916 576.302 73.532 576.194 82.712V119H563.558ZM645.89 119.756C637.142 119.756 632.822 115.868 632.822 108.524V67.268L624.722 67.376V57.872L632.822 57.98V41.132L645.134 40.052V57.98L655.07 57.872V67.376L645.134 67.268V103.664C645.134 108.092 646.106 109.28 650.102 109.28C652.262 109.28 653.882 109.064 655.07 108.74V118.676C651.83 119.432 648.59 119.756 645.89 119.756ZM687.478 120.08C671.71 120.08 662.098 112.52 661.558 100.1L673.762 98.696C673.762 106.04 679.162 110.9 687.91 110.9C695.254 110.9 700.114 108.416 700.114 102.368C700.114 94.916 692.446 94.376 682.294 92.216C670.09 89.516 663.934 84.44 663.934 74.72C663.934 63.812 673.222 56.792 687.694 56.792C702.166 56.792 711.346 63.164 712.21 75.26L700.114 76.88C700.114 70.076 695.902 65.756 687.262 65.756C680.458 65.756 676.57 68.996 676.57 73.424C676.57 79.472 681.754 81.092 693.31 83.36C705.19 85.628 713.074 89.408 713.074 101.72C713.074 112.736 704.758 120.08 687.478 120.08Z"/>
</mask>
<path d="M16 119V40.268H71.62V51.392H28.852V74.288H66.436V85.304H28.852V119H16ZM100.316 120.08C86.6 120.08 78.824 111.872 78.824 99.02V57.872H91.46V97.508C91.46 104.852 96.104 108.848 103.34 108.848C112.196 108.848 118.244 103.124 118.46 94.592V57.872H131.096V119H119.432L118.892 110.036C114.896 116.408 108.092 120.08 100.316 120.08ZM162.105 119.756C153.357 119.756 149.037 115.868 149.037 108.524V67.268L140.937 67.376V57.872L149.037 57.98V41.132L161.349 40.052V57.98L171.285 57.872V67.376L161.349 67.268V103.664C161.349 108.092 162.321 109.28 166.317 109.28C168.477 109.28 170.097 109.064 171.285 108.74V118.676C168.045 119.432 164.805 119.756 162.105 119.756ZM202.621 120.08C188.905 120.08 181.129 111.872 181.129 99.02V57.872H193.765V97.508C193.765 104.852 198.409 108.848 205.645 108.848C214.501 108.848 220.549 103.124 220.765 94.592V57.872H233.401V119H221.737L221.197 110.036C217.201 116.408 210.397 120.08 202.621 120.08ZM248.101 119V57.872H259.441L260.197 67.052C263.329 60.572 268.297 57.116 274.885 57.116C277.045 57.116 278.773 57.332 279.961 57.764V69.644H279.205C278.017 69.212 276.397 68.996 274.777 68.996C266.785 68.996 261.601 74.072 260.737 82.064V119H248.101ZM313.06 120.08C295.348 120.08 283.36 108.524 283.36 88.544C283.36 69.32 294.268 56.792 312.628 56.792C330.34 56.792 341.788 68.564 340.168 91.676H295.888C296.86 104.096 303.016 109.928 313.168 109.928C321.7 109.928 327.208 105.932 328.504 99.02L339.52 101.72C337.252 112.736 327.208 120.08 313.06 120.08ZM312.412 66.512C303.88 66.512 297.616 71.48 296.104 82.604H327.316C327.532 72.884 322.024 66.512 312.412 66.512ZM402.076 120.08C384.364 120.08 372.376 108.524 372.376 88.544C372.376 69.32 383.284 56.792 401.644 56.792C419.356 56.792 430.804 68.564 429.184 91.676H384.904C385.876 104.096 392.032 109.928 402.184 109.928C410.716 109.928 416.224 105.932 417.52 99.02L428.536 101.72C426.268 112.736 416.224 120.08 402.076 120.08ZM401.428 66.512C392.896 66.512 386.632 71.48 385.12 82.604H416.332C416.548 72.884 411.04 66.512 401.428 66.512ZM455.421 119L431.877 57.872H445.485L455.313 85.952C458.337 94.484 460.065 99.776 462.549 107.984C464.709 100.424 467.193 92.864 469.569 85.952L479.505 57.872H492.465L469.353 119H455.421ZM525.685 120.08C507.973 120.08 495.985 108.524 495.985 88.544C495.985 69.32 506.893 56.792 525.253 56.792C542.965 56.792 554.413 68.564 552.793 91.676H508.513C509.485 104.096 515.641 109.928 525.793 109.928C534.325 109.928 539.833 105.932 541.129 99.02L552.145 101.72C549.877 112.736 539.833 120.08 525.685 120.08ZM525.037 66.512C516.505 66.512 510.241 71.48 508.729 82.604H539.941C540.157 72.884 534.649 66.512 525.037 66.512ZM563.558 119V57.872H575.114L575.762 66.836C580.838 59.924 587.102 56.792 595.418 56.792C607.73 56.792 616.37 63.812 616.37 78.068V119H603.842V79.58C603.842 72.344 599.63 67.916 591.53 67.916C583.214 67.916 576.302 73.532 576.194 82.712V119H563.558ZM645.89 119.756C637.142 119.756 632.822 115.868 632.822 108.524V67.268L624.722 67.376V57.872L632.822 57.98V41.132L645.134 40.052V57.98L655.07 57.872V67.376L645.134 67.268V103.664C645.134 108.092 646.106 109.28 650.102 109.28C652.262 109.28 653.882 109.064 655.07 108.74V118.676C651.83 119.432 648.59 119.756 645.89 119.756ZM687.478 120.08C671.71 120.08 662.098 112.52 661.558 100.1L673.762 98.696C673.762 106.04 679.162 110.9 687.91 110.9C695.254 110.9 700.114 108.416 700.114 102.368C700.114 94.916 692.446 94.376 682.294 92.216C670.09 89.516 663.934 84.44 663.934 74.72C663.934 63.812 673.222 56.792 687.694 56.792C702.166 56.792 711.346 63.164 712.21 75.26L700.114 76.88C700.114 70.076 695.902 65.756 687.262 65.756C680.458 65.756 676.57 68.996 676.57 73.424C676.57 79.472 681.754 81.092 693.31 83.36C705.19 85.628 713.074 89.408 713.074 101.72C713.074 112.736 704.758 120.08 687.478 120.08Z" fill="#A2A1FF"/>
<path d="M16 119H4.33922e-05V135H16V119ZM16 40.268V24.268H4.33922e-05V40.268H16ZM71.62 40.268H87.62V24.268H71.62V40.268ZM71.62 51.392V67.392H87.62V51.392H71.62ZM28.852 51.392V35.392H12.852V51.392H28.852ZM28.852 74.288H12.852V90.288H28.852V74.288ZM66.436 74.288H82.436V58.288H66.436V74.288ZM66.436 85.304V101.304H82.436V85.304H66.436ZM28.852 85.304V69.304H12.852V85.304H28.852ZM28.852 119V135H44.852V119H28.852ZM16 119H32V40.268H16H4.33922e-05V119H16ZM16 40.268V56.268H71.62V40.268V24.268H16V40.268ZM71.62 40.268H55.62V51.392H71.62H87.62V40.268H71.62ZM71.62 51.392V35.392H28.852V51.392V67.392H71.62V51.392ZM28.852 51.392H12.852V74.288H28.852H44.852V51.392H28.852ZM28.852 74.288V90.288H66.436V74.288V58.288H28.852V74.288ZM66.436 74.288H50.436V85.304H66.436H82.436V74.288H66.436ZM66.436 85.304V69.304H28.852V85.304V101.304H66.436V85.304ZM28.852 85.304H12.852V119H28.852H44.852V85.304H28.852ZM28.852 119V103H16V119V135H28.852V119ZM78.824 57.872V41.872H62.824V57.872H78.824ZM91.46 57.872H107.46V41.872H91.46V57.872ZM118.46 94.592L134.455 94.9969L134.46 94.7945V94.592H118.46ZM118.46 57.872V41.872H102.46V57.872H118.46ZM131.096 57.872H147.096V41.872H131.096V57.872ZM131.096 119V135H147.096V119H131.096ZM119.432 119L103.461 119.962L104.367 135H119.432V119ZM118.892 110.036L134.863 109.074L131.861 59.2403L105.337 101.535L118.892 110.036ZM100.316 120.08V104.08C98.47 104.08 97.3059 103.803 96.6585 103.567C96.0469 103.344 95.8164 103.132 95.7402 103.056C95.7298 103.045 94.824 102.215 94.824 99.02H78.824H62.824C62.824 108.677 65.8062 118.377 73.1128 125.683C80.4322 133.003 90.2499 136.08 100.316 136.08V120.08ZM78.824 99.02H94.824V57.872H78.824H62.824V99.02H78.824ZM78.824 57.872V73.872H91.46V57.872V41.872H78.824V57.872ZM91.46 57.872H75.46V97.508H91.46H107.46V57.872H91.46ZM91.46 97.508H75.46C75.46 104.663 77.8276 112.114 83.8022 117.659C89.6009 123.041 96.882 124.848 103.34 124.848V108.848V92.848C102.562 92.848 103.903 92.6568 105.571 94.2046C106.377 94.953 106.912 95.8133 107.207 96.5686C107.484 97.2809 107.46 97.6657 107.46 97.508H91.46ZM103.34 108.848V124.848C111.265 124.848 119.106 122.234 125.122 116.555C131.181 110.837 134.25 103.076 134.455 94.9969L118.46 94.592L102.465 94.1871C102.458 94.4679 102.413 94.4276 102.52 94.1768C102.63 93.9156 102.84 93.584 103.157 93.284C103.472 92.9871 103.753 92.8526 103.87 92.8094C103.976 92.7703 103.829 92.848 103.34 92.848V108.848ZM118.46 94.592H134.46V57.872H118.46H102.46V94.592H118.46ZM118.46 57.872V73.872H131.096V57.872V41.872H118.46V57.872ZM131.096 57.872H115.096V119H131.096H147.096V57.872H131.096ZM131.096 119V103H119.432V119V135H131.096V119ZM119.432 119L135.403 118.038L134.863 109.074L118.892 110.036L102.921 110.998L103.461 119.962L119.432 119ZM118.892 110.036L105.337 101.535C104.394 103.039 102.827 104.08 100.316 104.08V120.08V136.08C113.357 136.08 125.398 129.777 132.447 118.537L118.892 110.036ZM149.037 67.268H165.037V51.0532L148.823 51.2694L149.037 67.268ZM140.937 67.376H124.937V83.5908L141.15 83.3746L140.937 67.376ZM140.937 57.872L141.15 41.8734L124.937 41.6572V57.872H140.937ZM149.037 57.98L148.823 73.9786L165.037 74.1948V57.98H149.037ZM149.037 41.132L147.639 25.1932L133.037 26.4741V41.132H149.037ZM161.349 40.052H177.349V22.5871L159.951 24.1132L161.349 40.052ZM161.349 57.98H145.349V74.1549L161.523 73.979L161.349 57.98ZM171.285 57.872H187.285V41.6971L171.111 41.8729L171.285 57.872ZM171.285 67.376L171.111 83.3751L187.285 83.5509V67.376H171.285ZM161.349 67.268L161.523 51.2689L145.349 51.0931V67.268H161.349ZM171.285 108.74H187.285V87.792L167.075 93.3038L171.285 108.74ZM171.285 118.676L174.92 134.257L187.285 131.372V118.676H171.285ZM162.105 119.756V103.756C159.772 103.756 160.923 103.198 162.789 104.82C163.76 105.665 164.415 106.687 164.766 107.594C165.084 108.412 165.037 108.824 165.037 108.524H149.037H133.037C133.037 115.39 135.168 123.208 141.791 128.968C148.004 134.37 155.689 135.756 162.105 135.756V119.756ZM149.037 108.524H165.037V67.268H149.037H133.037V108.524H149.037ZM149.037 67.268L148.823 51.2694L140.723 51.3774L140.937 67.376L141.15 83.3746L149.25 83.2666L149.037 67.268ZM140.937 67.376H156.937V57.872H140.937H124.937V67.376H140.937ZM140.937 57.872L140.723 73.8706L148.823 73.9786L149.037 57.98L149.25 41.9814L141.15 41.8734L140.937 57.872ZM149.037 57.98H165.037V41.132H149.037H133.037V57.98H149.037ZM149.037 41.132L150.435 57.0708L162.747 55.9908L161.349 40.052L159.951 24.1132L147.639 25.1932L149.037 41.132ZM161.349 40.052H145.349V57.98H161.349H177.349V40.052H161.349ZM161.349 57.98L161.523 73.979L171.459 73.871L171.285 57.872L171.111 41.8729L161.175 41.9809L161.349 57.98ZM171.285 57.872H155.285V67.376H171.285H187.285V57.872H171.285ZM171.285 67.376L171.459 51.3769L161.523 51.2689L161.349 67.268L161.175 83.2671L171.111 83.3751L171.285 67.376ZM161.349 67.268H145.349V103.664H161.349H177.349V67.268H161.349ZM161.349 103.664H145.349C145.349 105.577 145.18 112.812 150.281 118.655C156.052 125.266 163.99 125.28 166.317 125.28V109.28V93.28C165.918 93.28 166.756 93.227 168.118 93.6038C169.758 94.0572 172.252 95.1643 174.387 97.61C176.395 99.9099 177.027 102.193 177.224 103.133C177.402 103.983 177.349 104.349 177.349 103.664H161.349ZM166.317 109.28V125.28C169.464 125.28 172.57 124.974 175.495 124.176L171.285 108.74L167.075 93.3038C167.378 93.2211 167.486 93.2192 167.341 93.2358C167.201 93.2519 166.871 93.28 166.317 93.28V109.28ZM171.285 108.74H155.285V118.676H171.285H187.285V108.74H171.285ZM171.285 118.676L167.649 103.095C165.643 103.563 163.625 103.756 162.105 103.756V119.756V135.756C165.984 135.756 170.446 135.301 174.92 134.257L171.285 118.676ZM181.129 57.872V41.872H165.129V57.872H181.129ZM193.765 57.872H209.765V41.872H193.765V57.872ZM220.765 94.592L236.76 94.9969L236.765 94.7945V94.592H220.765ZM220.765 57.872V41.872H204.765V57.872H220.765ZM233.401 57.872H249.401V41.872H233.401V57.872ZM233.401 119V135H249.401V119H233.401ZM221.737 119L205.766 119.962L206.672 135H221.737V119ZM221.197 110.036L237.168 109.074L234.166 59.2403L207.642 101.535L221.197 110.036ZM202.621 120.08V104.08C200.775 104.08 199.611 103.803 198.963 103.567C198.352 103.344 198.121 103.132 198.045 103.056C198.034 103.045 197.129 102.215 197.129 99.02H181.129H165.129C165.129 108.677 168.111 118.377 175.417 125.683C182.737 133.003 192.555 136.08 202.621 136.08V120.08ZM181.129 99.02H197.129V57.872H181.129H165.129V99.02H181.129ZM181.129 57.872V73.872H193.765V57.872V41.872H181.129V57.872ZM193.765 57.872H177.765V97.508H193.765H209.765V57.872H193.765ZM193.765 97.508H177.765C177.765 104.663 180.132 112.114 186.107 117.659C191.906 123.041 199.187 124.848 205.645 124.848V108.848V92.848C204.867 92.848 206.208 92.6568 207.875 94.2046C208.682 94.953 209.217 95.8133 209.511 96.5686C209.789 97.2809 209.765 97.6657 209.765 97.508H193.765ZM205.645 108.848V124.848C213.569 124.848 221.41 122.234 227.427 116.555C233.486 110.837 236.555 103.076 236.76 94.9969L220.765 94.592L204.77 94.1871C204.763 94.4679 204.718 94.4276 204.824 94.1768C204.935 93.9156 205.144 93.584 205.462 93.284C205.777 92.9871 206.057 92.8526 206.175 92.8094C206.281 92.7703 206.134 92.848 205.645 92.848V108.848ZM220.765 94.592H236.765V57.872H220.765H204.765V94.592H220.765ZM220.765 57.872V73.872H233.401V57.872V41.872H220.765V57.872ZM233.401 57.872H217.401V119H233.401H249.401V57.872H233.401ZM233.401 119V103H221.737V119V135H233.401V119ZM221.737 119L237.708 118.038L237.168 109.074L221.197 110.036L205.226 110.998L205.766 119.962L221.737 119ZM221.197 110.036L207.642 101.535C206.699 103.039 205.132 104.08 202.621 104.08V120.08V136.08C215.662 136.08 227.703 129.777 234.752 118.537L221.197 110.036ZM248.101 119H232.101V135H248.101V119ZM248.101 57.872V41.872H232.101V57.872H248.101ZM259.441 57.872L275.387 56.5588L274.178 41.872H259.441V57.872ZM260.197 67.052L244.251 68.3652L249.067 126.847L274.603 74.0147L260.197 67.052ZM279.961 57.764H295.961V46.5572L285.429 42.7273L279.961 57.764ZM279.961 69.644V85.644H295.961V69.644H279.961ZM279.205 69.644L273.737 84.6807L276.387 85.644H279.205V69.644ZM260.737 82.064L244.83 80.3443L244.737 81.2016V82.064H260.737ZM260.737 119V135H276.737V119H260.737ZM248.101 119H264.101V57.872H248.101H232.101V119H248.101ZM248.101 57.872V73.872H259.441V57.872V41.872H248.101V57.872ZM259.441 57.872L243.495 59.1852L244.251 68.3652L260.197 67.052L276.143 65.7388L275.387 56.5588L259.441 57.872ZM260.197 67.052L274.603 74.0147C274.91 73.3797 275.157 73.0367 275.278 72.8883C275.392 72.7494 275.393 72.7822 275.254 72.8767C275.108 72.9766 274.932 73.0581 274.78 73.1031C274.637 73.1454 274.648 73.116 274.885 73.116V57.116V41.116C261.237 41.116 251.168 48.9657 245.792 60.0893L260.197 67.052ZM274.885 57.116V73.116C275.161 73.116 275.376 73.123 275.532 73.1317C275.69 73.1405 275.767 73.1499 275.772 73.1505C275.78 73.1516 275.678 73.1392 275.484 73.0961C275.296 73.0541 274.951 72.9671 274.493 72.8007L279.961 57.764L285.429 42.7273C281.644 41.3508 277.727 41.116 274.885 41.116V57.116ZM279.961 57.764H263.961V69.644H279.961H295.961V57.764H279.961ZM279.961 69.644V53.644H279.205V69.644V85.644H279.961V69.644ZM279.205 69.644L284.673 54.6073C281.132 53.3197 277.494 52.996 274.777 52.996V68.996V84.996C274.901 84.996 274.951 85.0059 274.891 84.9972C274.853 84.9918 274.746 84.9753 274.575 84.9352C274.411 84.8965 274.122 84.8204 273.737 84.6807L279.205 69.644ZM274.777 68.996V52.996C267.261 52.996 259.861 55.4623 254.102 60.8972C248.429 66.252 245.591 73.3085 244.83 80.3443L260.737 82.064L276.645 83.7837C276.697 83.2992 276.78 83.1779 276.72 83.3106C276.651 83.4598 276.459 83.7988 276.066 84.1688C275.667 84.5457 275.234 84.7909 274.886 84.9195C274.557 85.0413 274.478 84.996 274.777 84.996V68.996ZM260.737 82.064H244.737V119H260.737H276.737V82.064H260.737ZM260.737 119V103H248.101V119V135H260.737V119ZM340.168 91.676V107.676H355.086L356.129 92.7948L340.168 91.676ZM295.888 91.676V75.676H278.587L279.937 92.9244L295.888 91.676ZM328.504 99.02L332.313 83.48L315.893 79.4556L312.778 96.0714L328.504 99.02ZM339.52 101.72L355.191 104.946L358.299 89.8493L343.329 86.18L339.52 101.72ZM296.104 82.604L280.25 80.4491L277.782 98.604H296.104V82.604ZM327.316 82.604V98.604H342.964L343.312 82.9595L327.316 82.604ZM313.06 120.08V104.08C307.757 104.08 304.76 102.43 303.067 100.68C301.338 98.8918 299.36 95.3244 299.36 88.544H283.36H267.36C267.36 101.744 271.376 113.944 280.068 122.929C288.798 131.952 300.651 136.08 313.06 136.08V120.08ZM283.36 88.544H299.36C299.36 81.8752 301.228 78.1176 302.958 76.2103C304.514 74.4957 307.273 72.792 312.628 72.792V56.792V40.792C299.623 40.792 287.748 45.3523 279.259 54.7077C270.946 63.8704 267.36 75.9888 267.36 88.544H283.36ZM312.628 56.792V72.792C317.851 72.792 320.182 74.4046 321.37 75.8267C322.762 77.4931 324.833 81.6282 324.207 90.5572L340.168 91.676L356.129 92.7948C357.123 78.6118 354.279 65.3049 345.925 55.3073C337.366 45.0653 325.117 40.792 312.628 40.792V56.792ZM340.168 91.676V75.676H295.888V91.676V107.676H340.168V91.676ZM295.888 91.676L279.937 92.9244C280.596 101.354 283.194 110.016 289.619 116.618C296.291 123.475 304.947 125.928 313.168 125.928V109.928V93.928C312.142 93.928 311.771 93.7792 311.831 93.8011C311.954 93.8463 312.268 94.0088 312.552 94.3011C313.117 94.8819 312.151 94.4179 311.839 90.4276L295.888 91.676ZM313.168 109.928V125.928C319.838 125.928 326.864 124.366 332.856 120.081C339.082 115.629 342.883 109.154 344.23 101.969L328.504 99.02L312.778 96.0714C312.784 96.0395 312.857 95.7041 313.149 95.231C313.45 94.7444 313.846 94.3348 314.243 94.0508C315.024 93.4923 315.03 93.928 313.168 93.928V109.928ZM328.504 99.02L324.695 114.56L335.711 117.26L339.52 101.72L343.329 86.18L332.313 83.48L328.504 99.02ZM339.52 101.72L323.849 98.4936C323.557 99.9093 322.856 101.017 321.533 101.949C320.096 102.961 317.403 104.08 313.06 104.08V120.08V136.08C332.782 136.08 351.019 125.213 355.191 104.946L339.52 101.72ZM312.412 66.512V50.512C304.953 50.512 297.068 52.7561 290.71 58.6878C284.469 64.5108 281.351 72.3475 280.25 80.4491L296.104 82.604L311.958 84.7589C312.162 83.2618 312.464 82.4359 312.628 82.0794C312.777 81.7543 312.796 81.8473 312.541 82.0852C312.275 82.3333 311.982 82.4864 311.806 82.5486C311.668 82.5974 311.824 82.512 312.412 82.512V66.512ZM296.104 82.604V98.604H327.316V82.604V66.604H296.104V82.604ZM327.316 82.604L343.312 82.9595C343.487 75.0763 341.349 66.7102 335.391 60.1531C329.286 53.4347 320.89 50.512 312.412 50.512V66.512V82.512C313.049 82.512 313.134 82.6158 312.861 82.5058C312.727 82.452 312.536 82.358 312.318 82.2076C312.1 82.0565 311.891 81.8748 311.708 81.6729C311.525 81.4721 311.397 81.2842 311.314 81.137C311.231 80.9919 311.206 80.9098 311.208 80.919C311.217 80.9455 311.34 81.3504 311.32 82.2485L327.316 82.604ZM429.184 91.676V107.676H444.101L445.144 92.7948L429.184 91.676ZM384.904 91.676V75.676H367.602L368.952 92.9244L384.904 91.676ZM417.52 99.02L421.328 83.48L404.909 79.4556L401.794 96.0714L417.52 99.02ZM428.536 101.72L444.207 104.946L447.315 89.8493L432.344 86.18L428.536 101.72ZM385.12 82.604L369.265 80.4491L366.798 98.604H385.12V82.604ZM416.332 82.604V98.604H431.98L432.328 82.9595L416.332 82.604ZM402.076 120.08V104.08C396.773 104.08 393.776 102.43 392.083 100.68C390.353 98.8918 388.376 95.3244 388.376 88.544H372.376H356.376C356.376 101.744 360.392 113.944 369.084 122.929C377.813 131.952 389.667 136.08 402.076 136.08V120.08ZM372.376 88.544H388.376C388.376 81.8752 390.243 78.1176 391.974 76.2103C393.53 74.4957 396.289 72.792 401.644 72.792V56.792V40.792C388.639 40.792 376.763 45.3523 368.275 54.7077C359.962 63.8704 356.376 75.9888 356.376 88.544H372.376ZM401.644 56.792V72.792C406.866 72.792 409.197 74.4046 410.386 75.8267C411.778 77.4931 413.849 81.6282 413.223 90.5572L429.184 91.676L445.144 92.7948C446.139 78.6118 443.295 65.3049 434.941 55.3073C426.382 45.0653 414.133 40.792 401.644 40.792V56.792ZM429.184 91.676V75.676H384.904V91.676V107.676H429.184V91.676ZM384.904 91.676L368.952 92.9244C369.612 101.354 372.21 110.016 378.634 116.618C385.307 123.475 393.963 125.928 402.184 125.928V109.928V93.928C401.158 93.928 400.787 93.7792 400.847 93.8011C400.97 93.8463 401.284 94.0088 401.568 94.3011C402.133 94.8819 401.167 94.4179 400.855 90.4276L384.904 91.676ZM402.184 109.928V125.928C408.854 125.928 415.879 124.366 421.871 120.081C428.098 115.629 431.898 109.154 433.246 101.969L417.52 99.02L401.794 96.0714C401.8 96.0395 401.872 95.7041 402.165 95.231C402.465 94.7444 402.862 94.3348 403.259 94.0508C404.04 93.4923 404.046 93.928 402.184 93.928V109.928ZM417.52 99.02L413.711 114.56L424.727 117.26L428.536 101.72L432.344 86.18L421.328 83.48L417.52 99.02ZM428.536 101.72L412.864 98.4936C412.573 99.9093 411.872 101.017 410.549 101.949C409.112 102.961 406.419 104.08 402.076 104.08V120.08V136.08C421.798 136.08 440.034 125.213 444.207 104.946L428.536 101.72ZM401.428 66.512V50.512C393.969 50.512 386.083 52.7561 379.726 58.6878C373.485 64.5108 370.367 72.3475 369.265 80.4491L385.12 82.604L400.974 84.7589C401.177 83.2618 401.479 82.4359 401.643 82.0794C401.793 81.7543 401.811 81.8473 401.556 82.0852C401.29 82.3333 400.997 82.4864 400.821 82.5486C400.683 82.5974 400.84 82.512 401.428 82.512V66.512ZM385.12 82.604V98.604H416.332V82.604V66.604H385.12V82.604ZM416.332 82.604L432.328 82.9595C432.503 75.0763 430.365 66.7102 424.407 60.1531C418.302 53.4347 409.906 50.512 401.428 50.512V66.512V82.512C402.065 82.512 402.15 82.6158 401.876 82.5058C401.742 82.452 401.552 82.358 401.334 82.2076C401.115 82.0565 400.907 81.8748 400.723 81.6729C400.541 81.4721 400.413 81.2842 400.329 81.137C400.247 80.9919 400.221 80.9098 400.224 80.919C400.233 80.9455 400.355 81.3504 400.336 82.2485L416.332 82.604ZM455.421 119L440.49 124.751L444.438 135H455.421V119ZM431.877 57.872V41.872H408.569L416.946 63.6227L431.877 57.872ZM445.485 57.872L460.587 52.5864L456.837 41.872H445.485V57.872ZM455.313 85.952L440.211 91.2376L440.221 91.2674L440.232 91.2971L455.313 85.952ZM462.549 107.984L447.235 112.619L462.99 164.68L477.933 112.38L462.549 107.984ZM469.569 85.952L454.485 80.6147L454.461 80.6826L454.438 80.7507L469.569 85.952ZM479.505 57.872V41.872H468.194L464.421 52.5347L479.505 57.872ZM492.465 57.872L507.431 63.5305L515.62 41.872H492.465V57.872ZM469.353 119V135H480.409L484.319 124.659L469.353 119ZM455.421 119L470.352 113.249L446.808 52.1213L431.877 57.872L416.946 63.6227L440.49 124.751L455.421 119ZM431.877 57.872V73.872H445.485V57.872V41.872H431.877V57.872ZM445.485 57.872L430.383 63.1576L440.211 91.2376L455.313 85.952L470.415 80.6664L460.587 52.5864L445.485 57.872ZM455.313 85.952L440.232 91.2971C443.171 99.5892 444.821 104.644 447.235 112.619L462.549 107.984L477.863 103.349C475.308 94.9078 473.503 89.3788 470.394 80.6069L455.313 85.952ZM462.549 107.984L477.933 112.38C479.984 105.2 482.368 97.9354 484.7 91.1533L469.569 85.952L454.438 80.7507C452.017 87.7926 449.433 95.6476 447.164 103.588L462.549 107.984ZM469.569 85.952L484.652 91.2893L494.588 63.2093L479.505 57.872L464.421 52.5347L454.485 80.6147L469.569 85.952ZM479.505 57.872V73.872H492.465V57.872V41.872H479.505V57.872ZM492.465 57.872L477.499 52.2135L454.387 113.341L469.353 119L484.319 124.659L507.431 63.5305L492.465 57.872ZM469.353 119V103H455.421V119V135H469.353V119ZM552.793 91.676V107.676H567.711L568.754 92.7948L552.793 91.676ZM508.513 91.676V75.676H491.212L492.562 92.9244L508.513 91.676ZM541.129 99.02L544.938 83.48L528.518 79.4556L525.403 96.0714L541.129 99.02ZM552.145 101.72L567.816 104.946L570.924 89.8493L555.954 86.18L552.145 101.72ZM508.729 82.604L492.875 80.4491L490.407 98.604H508.729V82.604ZM539.941 82.604V98.604H555.589L555.937 82.9595L539.941 82.604ZM525.685 120.08V104.08C520.382 104.08 517.385 102.43 515.692 100.68C513.963 98.8918 511.985 95.3244 511.985 88.544H495.985H479.985C479.985 101.744 484.001 113.944 492.693 122.929C501.423 131.952 513.276 136.08 525.685 136.08V120.08ZM495.985 88.544H511.985C511.985 81.8752 513.853 78.1176 515.583 76.2103C517.139 74.4957 519.898 72.792 525.253 72.792V56.792V40.792C512.248 40.792 500.373 45.3523 491.884 54.7077C483.571 63.8704 479.985 75.9888 479.985 88.544H495.985ZM525.253 56.792V72.792C530.476 72.792 532.807 74.4046 533.995 75.8267C535.387 77.4931 537.458 81.6282 536.832 90.5572L552.793 91.676L568.754 92.7948C569.748 78.6118 566.904 65.3049 558.55 55.3073C549.991 45.0653 537.742 40.792 525.253 40.792V56.792ZM552.793 91.676V75.676H508.513V91.676V107.676H552.793V91.676ZM508.513 91.676L492.562 92.9244C493.221 101.354 495.819 110.016 502.244 116.618C508.916 123.475 517.572 125.928 525.793 125.928V109.928V93.928C524.767 93.928 524.396 93.7792 524.456 93.8011C524.579 93.8463 524.893 94.0088 525.177 94.3011C525.742 94.8819 524.776 94.4179 524.464 90.4276L508.513 91.676ZM525.793 109.928V125.928C532.463 125.928 539.489 124.366 545.481 120.081C551.708 115.629 555.508 109.154 556.855 101.969L541.129 99.02L525.403 96.0714C525.409 96.0395 525.482 95.7041 525.774 95.231C526.075 94.7444 526.471 94.3348 526.868 94.0508C527.649 93.4923 527.655 93.928 525.793 93.928V109.928ZM541.129 99.02L537.32 114.56L548.336 117.26L552.145 101.72L555.954 86.18L544.938 83.48L541.129 99.02ZM552.145 101.72L536.474 98.4936C536.182 99.9093 535.481 101.017 534.158 101.949C532.721 102.961 530.028 104.08 525.685 104.08V120.08V136.08C545.407 136.08 563.644 125.213 567.816 104.946L552.145 101.72ZM525.037 66.512V50.512C517.578 50.512 509.693 52.7561 503.335 58.6878C497.094 64.5108 493.976 72.3475 492.875 80.4491L508.729 82.604L524.583 84.7589C524.787 83.2618 525.089 82.4359 525.253 82.0794C525.402 81.7543 525.421 81.8473 525.166 82.0852C524.9 82.3333 524.607 82.4864 524.431 82.5486C524.293 82.5974 524.449 82.512 525.037 82.512V66.512ZM508.729 82.604V98.604H539.941V82.604V66.604H508.729V82.604ZM539.941 82.604L555.937 82.9595C556.112 75.0763 553.974 66.7102 548.016 60.1531C541.911 53.4347 533.515 50.512 525.037 50.512V66.512V82.512C525.674 82.512 525.759 82.6158 525.486 82.5058C525.352 82.452 525.161 82.358 524.943 82.2076C524.725 82.0565 524.516 81.8748 524.333 81.6729C524.15 81.4721 524.022 81.2842 523.939 81.137C523.856 80.9919 523.831 80.9098 523.833 80.919C523.842 80.9455 523.965 81.3504 523.945 82.2485L539.941 82.604ZM563.558 119H547.558V135H563.558V119ZM563.558 57.872V41.872H547.558V57.872H563.558ZM575.114 57.872L591.073 56.7184L590 41.872H575.114V57.872ZM575.762 66.836L559.804 67.9896L562.937 111.331L588.658 76.3065L575.762 66.836ZM616.37 119V135H632.37V119H616.37ZM603.842 119H587.842V135H603.842V119ZM576.194 82.712L560.195 82.5238L560.194 82.6179V82.712H576.194ZM576.194 119V135H592.194V119H576.194ZM563.558 119H579.558V57.872H563.558H547.558V119H563.558ZM563.558 57.872V73.872H575.114V57.872V41.872H563.558V57.872ZM575.114 57.872L559.156 59.0256L559.804 67.9896L575.762 66.836L591.721 65.6824L591.073 56.7184L575.114 57.872ZM575.762 66.836L588.658 76.3065C590.743 73.4684 592.234 72.792 595.418 72.792V56.792V40.792C581.971 40.792 570.934 46.3796 562.866 57.3655L575.762 66.836ZM595.418 56.792V72.792C596.997 72.792 598.039 73.0189 598.646 73.2292C599.218 73.4274 599.414 73.6099 599.454 73.6481C599.481 73.6739 599.652 73.8289 599.854 74.3661C600.073 74.9485 600.37 76.1073 600.37 78.068H616.37H632.37C632.37 67.642 629.122 57.7425 621.569 50.5199C614.145 43.4214 604.529 40.792 595.418 40.792V56.792ZM616.37 78.068H600.37V119H616.37H632.37V78.068H616.37ZM616.37 119V103H603.842V119V135H616.37V119ZM603.842 119H619.842V79.58H603.842H587.842V119H603.842ZM603.842 79.58H619.842C619.842 72.8778 617.829 65.3586 611.887 59.5719C605.996 53.8351 598.413 51.916 591.53 51.916V67.916V83.916C592.748 83.916 591.321 84.2109 589.561 82.4971C587.75 80.7334 587.842 79.0462 587.842 79.58H603.842ZM591.53 67.916V51.916C575.586 51.916 560.419 63.4888 560.195 82.5238L576.194 82.712L592.193 82.9002C592.197 82.6179 592.243 82.6714 592.131 82.9268C592.02 83.1818 591.833 83.4483 591.601 83.6612C591.129 84.0946 590.948 83.916 591.53 83.916V67.916ZM576.194 82.712H560.194V119H576.194H592.194V82.712H576.194ZM576.194 119V103H563.558V119V135H576.194V119ZM632.822 67.268H648.822V51.0532L632.608 51.2694L632.822 67.268ZM624.722 67.376H608.722V83.5908L624.935 83.3746L624.722 67.376ZM624.722 57.872L624.935 41.8734L608.722 41.6572V57.872H624.722ZM632.822 57.98L632.608 73.9786L648.822 74.1948V57.98H632.822ZM632.822 41.132L631.424 25.1932L616.822 26.4741V41.132H632.822ZM645.134 40.052H661.134V22.5871L643.736 24.1132L645.134 40.052ZM645.134 57.98H629.134V74.1549L645.308 73.979L645.134 57.98ZM655.07 57.872H671.07V41.6971L654.896 41.8729L655.07 57.872ZM655.07 67.376L654.896 83.3751L671.07 83.5509V67.376H655.07ZM645.134 67.268L645.308 51.2689L629.134 51.0931V67.268H645.134ZM655.07 108.74H671.07V87.792L650.86 93.3038L655.07 108.74ZM655.07 118.676L658.705 134.257L671.07 131.372V118.676H655.07ZM645.89 119.756V103.756C643.557 103.756 644.708 103.198 646.574 104.82C647.545 105.665 648.2 106.687 648.552 107.594C648.869 108.412 648.822 108.824 648.822 108.524H632.822H616.822C616.822 115.39 618.953 123.208 625.576 128.968C631.79 134.37 639.474 135.756 645.89 135.756V119.756ZM632.822 108.524H648.822V67.268H632.822H616.822V108.524H632.822ZM632.822 67.268L632.608 51.2694L624.508 51.3774L624.722 67.376L624.935 83.3746L633.035 83.2666L632.822 67.268ZM624.722 67.376H640.722V57.872H624.722H608.722V67.376H624.722ZM624.722 57.872L624.508 73.8706L632.608 73.9786L632.822 57.98L633.035 41.9814L624.935 41.8734L624.722 57.872ZM632.822 57.98H648.822V41.132H632.822H616.822V57.98H632.822ZM632.822 41.132L634.22 57.0708L646.532 55.9908L645.134 40.052L643.736 24.1132L631.424 25.1932L632.822 41.132ZM645.134 40.052H629.134V57.98H645.134H661.134V40.052H645.134ZM645.134 57.98L645.308 73.979L655.244 73.871L655.07 57.872L654.896 41.8729L644.96 41.9809L645.134 57.98ZM655.07 57.872H639.07V67.376H655.07H671.07V57.872H655.07ZM655.07 67.376L655.244 51.3769L645.308 51.2689L645.134 67.268L644.96 83.2671L654.896 83.3751L655.07 67.376ZM645.134 67.268H629.134V103.664H645.134H661.134V67.268H645.134ZM645.134 103.664H629.134C629.134 105.577 628.965 112.812 634.066 118.655C639.838 125.266 647.776 125.28 650.102 125.28V109.28V93.28C649.703 93.28 650.541 93.227 651.904 93.6038C653.544 94.0572 656.037 95.1643 658.172 97.61C660.18 99.9099 660.812 102.193 661.009 103.133C661.187 103.983 661.134 104.349 661.134 103.664H645.134ZM650.102 109.28V125.28C653.249 125.28 656.355 124.974 659.28 124.176L655.07 108.74L650.86 93.3038C651.163 93.2211 651.271 93.2192 651.126 93.2358C650.986 93.2519 650.656 93.28 650.102 93.28V109.28ZM655.07 108.74H639.07V118.676H655.07H671.07V108.74H655.07ZM655.07 118.676L651.434 103.095C649.429 103.563 647.41 103.756 645.89 103.756V119.756V135.756C649.769 135.756 654.231 135.301 658.705 134.257L655.07 118.676ZM661.558 100.1L659.73 84.2048L644.926 85.9079L645.573 100.795L661.558 100.1ZM673.762 98.696H689.762V80.7498L671.934 82.8008L673.762 98.696ZM682.294 92.216L678.838 107.838L678.901 107.852L678.965 107.866L682.294 92.216ZM712.21 75.26L714.334 91.1184L729.241 89.1219L728.17 74.12L712.21 75.26ZM700.114 76.88H684.114V95.1657L702.238 92.7384L700.114 76.88ZM693.31 83.36L690.229 99.0605L690.269 99.0684L690.31 99.0762L693.31 83.36ZM687.478 120.08V104.08C681.97 104.08 679.442 102.746 678.609 102.101C678.229 101.807 678.056 101.56 677.939 101.326C677.813 101.073 677.591 100.499 677.543 99.405L661.558 100.1L645.573 100.795C646.032 111.342 650.57 120.855 659.006 127.394C667.057 133.634 677.219 136.08 687.478 136.08V120.08ZM661.558 100.1L663.387 115.995L675.591 114.591L673.762 98.696L671.934 82.8008L659.73 84.2048L661.558 100.1ZM673.762 98.696H657.762C657.762 106.539 660.784 114.15 667.034 119.606C673.064 124.87 680.664 126.9 687.91 126.9V110.9V94.9C686.409 94.9 686.934 94.5003 688.078 95.4984C688.642 95.991 689.122 96.6417 689.431 97.3562C689.731 98.0521 689.762 98.5558 689.762 98.696H673.762ZM687.91 110.9V126.9C692.917 126.9 699.571 126.135 705.444 122.344C712.427 117.836 716.114 110.477 716.114 102.368H700.114H684.114C684.114 101.704 684.261 100.359 685.082 98.7989C685.921 97.2055 687.086 96.107 688.088 95.4598C688.997 94.8734 689.592 94.766 689.478 94.7909C689.377 94.8131 688.889 94.9 687.91 94.9V110.9ZM700.114 102.368H716.114C716.114 97.5624 714.799 92.5218 711.404 88.1408C708.226 84.0396 704.223 81.8212 701.201 80.5531C698.219 79.3024 695.146 78.5541 692.789 78.0371C691.089 77.6641 687.066 76.8732 685.624 76.5663L682.294 92.216L678.965 107.866C680.35 108.161 681.685 108.426 682.839 108.657C684.037 108.896 685.028 109.095 685.934 109.294C687.87 109.719 688.617 109.976 688.822 110.062C688.985 110.13 687.534 109.579 686.111 107.743C685.379 106.798 684.833 105.739 684.497 104.667C684.172 103.629 684.114 102.811 684.114 102.368H700.114ZM682.294 92.216L685.75 76.5938C683.41 76.076 681.793 75.5361 680.712 75.0612C679.643 74.5915 679.327 74.2857 679.375 74.3297C679.49 74.4352 679.741 74.7368 679.905 75.1388C680.046 75.4869 679.934 75.4521 679.934 74.72H663.934H647.934C647.934 83.4165 650.905 91.6146 657.7 97.8713C663.795 103.483 671.603 106.238 678.838 107.838L682.294 92.216ZM663.934 74.72H679.934C679.934 74.3124 680.008 74.302 679.92 74.4768C679.836 74.6459 679.785 74.6184 680.027 74.4354C680.619 73.9883 682.843 72.792 687.694 72.792V56.792V40.792C678.073 40.792 668.417 43.1057 660.747 48.8956C652.647 55.0108 647.934 64.2029 647.934 74.72H663.934ZM687.694 56.792V72.792C692.815 72.792 694.989 73.9472 695.561 74.3688C695.787 74.5351 695.843 74.6307 695.888 74.7165C695.947 74.8297 696.173 75.3043 696.251 76.3999L712.21 75.26L728.17 74.12C727.437 63.8666 722.89 54.7598 714.549 48.6112C706.697 42.8228 697.045 40.792 687.694 40.792V56.792ZM712.21 75.26L710.086 59.4016L697.99 61.0216L700.114 76.88L702.238 92.7384L714.334 91.1184L712.21 75.26ZM700.114 76.88H716.114C716.114 70.1001 713.912 62.5576 707.665 56.9037C701.649 51.4587 694.065 49.756 687.262 49.756V65.756V81.756C689.099 81.756 687.942 82.2133 686.192 80.6293C685.331 79.8502 684.74 78.921 684.41 78.0732C684.103 77.284 684.114 76.8124 684.114 76.88H700.114ZM687.262 65.756V49.756C681.512 49.756 675.141 51.1074 669.78 55.1181C664.034 59.4171 660.57 66.0263 660.57 73.424H676.57H692.57C692.57 74.7082 692.275 76.1757 691.548 77.6066C690.825 79.0298 689.854 80.0641 688.95 80.7409C687.234 82.0246 686.209 81.756 687.262 81.756V65.756ZM676.57 73.424H660.57C660.57 77.3164 661.44 81.7165 664.098 85.8557C666.686 89.884 670.147 92.383 673.146 93.9637C678.352 96.7079 685.004 98.0351 690.229 99.0605L693.31 83.36L696.392 67.6595C693.557 67.1031 691.513 66.6622 689.958 66.2457C688.338 65.8119 687.912 65.5736 688.067 65.6553C688.326 65.7915 689.769 66.6098 691.023 68.5625C692.349 70.626 692.57 72.5556 692.57 73.424H676.57ZM693.31 83.36L690.31 99.0762C692.867 99.5643 694.687 100.04 696.001 100.512C697.305 100.981 697.693 101.3 697.646 101.263C697.481 101.13 697.169 100.781 696.99 100.37C696.854 100.058 697.074 100.338 697.074 101.72H713.074H729.074C729.074 91.607 725.548 82.61 717.648 76.2844C710.927 70.9019 702.606 68.8457 696.311 67.6438L693.31 83.36ZM713.074 101.72H697.074C697.074 102.445 696.944 102.601 697.019 102.441C697.113 102.242 697.227 102.177 697.091 102.28C696.647 102.617 694.16 104.08 687.478 104.08V120.08V136.08C698.076 136.08 708.388 133.871 716.421 127.782C725.068 121.228 729.074 111.687 729.074 101.72H713.074Z" fill="#A2A1FF" mask="url(#path-1-outside-1_41_173)"/>
<path d="M15 119V40.268H70.62V51.392H27.852V74.288H65.436V85.304H27.852V119H15ZM99.316 120.08C85.6 120.08 77.824 111.872 77.824 99.02V57.872H90.46V97.508C90.46 104.852 95.104 108.848 102.34 108.848C111.196 108.848 117.244 103.124 117.46 94.592V57.872H130.096V119H118.432L117.892 110.036C113.896 116.408 107.092 120.08 99.316 120.08ZM161.105 119.756C152.357 119.756 148.037 115.868 148.037 108.524V67.268L139.937 67.376V57.872L148.037 57.98V41.132L160.349 40.052V57.98L170.285 57.872V67.376L160.349 67.268V103.664C160.349 108.092 161.321 109.28 165.317 109.28C167.477 109.28 169.097 109.064 170.285 108.74V118.676C167.045 119.432 163.805 119.756 161.105 119.756ZM201.621 120.08C187.905 120.08 180.129 111.872 180.129 99.02V57.872H192.765V97.508C192.765 104.852 197.409 108.848 204.645 108.848C213.501 108.848 219.549 103.124 219.765 94.592V57.872H232.401V119H220.737L220.197 110.036C216.201 116.408 209.397 120.08 201.621 120.08ZM247.101 119V57.872H258.441L259.197 67.052C262.329 60.572 267.297 57.116 273.885 57.116C276.045 57.116 277.773 57.332 278.961 57.764V69.644H278.205C277.017 69.212 275.397 68.996 273.777 68.996C265.785 68.996 260.601 74.072 259.737 82.064V119H247.101ZM312.06 120.08C294.348 120.08 282.36 108.524 282.36 88.544C282.36 69.32 293.268 56.792 311.628 56.792C329.34 56.792 340.788 68.564 339.168 91.676H294.888C295.86 104.096 302.016 109.928 312.168 109.928C320.7 109.928 326.208 105.932 327.504 99.02L338.52 101.72C336.252 112.736 326.208 120.08 312.06 120.08ZM311.412 66.512C302.88 66.512 296.616 71.48 295.104 82.604H326.316C326.532 72.884 321.024 66.512 311.412 66.512ZM401.076 120.08C383.364 120.08 371.376 108.524 371.376 88.544C371.376 69.32 382.284 56.792 400.644 56.792C418.356 56.792 429.804 68.564 428.184 91.676H383.904C384.876 104.096 391.032 109.928 401.184 109.928C409.716 109.928 415.224 105.932 416.52 99.02L427.536 101.72C425.268 112.736 415.224 120.08 401.076 120.08ZM400.428 66.512C391.896 66.512 385.632 71.48 384.12 82.604H415.332C415.548 72.884 410.04 66.512 400.428 66.512ZM454.421 119L430.877 57.872H444.485L454.313 85.952C457.337 94.484 459.065 99.776 461.549 107.984C463.709 100.424 466.193 92.864 468.569 85.952L478.505 57.872H491.465L468.353 119H454.421ZM524.685 120.08C506.973 120.08 494.985 108.524 494.985 88.544C494.985 69.32 505.893 56.792 524.253 56.792C541.965 56.792 553.413 68.564 551.793 91.676H507.513C508.485 104.096 514.641 109.928 524.793 109.928C533.325 109.928 538.833 105.932 540.129 99.02L551.145 101.72C548.877 112.736 538.833 120.08 524.685 120.08ZM524.037 66.512C515.505 66.512 509.241 71.48 507.729 82.604H538.941C539.157 72.884 533.649 66.512 524.037 66.512ZM562.558 119V57.872H574.114L574.762 66.836C579.838 59.924 586.102 56.792 594.418 56.792C606.73 56.792 615.37 63.812 615.37 78.068V119H602.842V79.58C602.842 72.344 598.63 67.916 590.53 67.916C582.214 67.916 575.302 73.532 575.194 82.712V119H562.558ZM644.89 119.756C636.142 119.756 631.822 115.868 631.822 108.524V67.268L623.722 67.376V57.872L631.822 57.98V41.132L644.134 40.052V57.98L654.07 57.872V67.376L644.134 67.268V103.664C644.134 108.092 645.106 109.28 649.102 109.28C651.262 109.28 652.882 109.064 654.07 108.74V118.676C650.83 119.432 647.59 119.756 644.89 119.756ZM686.478 120.08C670.71 120.08 661.098 112.52 660.558 100.1L672.762 98.696C672.762 106.04 678.162 110.9 686.91 110.9C694.254 110.9 699.114 108.416 699.114 102.368C699.114 94.916 691.446 94.376 681.294 92.216C669.09 89.516 662.934 84.44 662.934 74.72C662.934 63.812 672.222 56.792 686.694 56.792C701.166 56.792 710.346 63.164 711.21 75.26L699.114 76.88C699.114 70.076 694.902 65.756 686.262 65.756C679.458 65.756 675.57 68.996 675.57 73.424C675.57 79.472 680.754 81.092 692.31 83.36C704.19 85.628 712.074 89.408 712.074 101.72C712.074 112.736 703.758 120.08 686.478 120.08Z" fill="#0C1818"/>
</svg>
