<svg width="479" height="151" viewBox="0 0 479 151" fill="none" xmlns="http://www.w3.org/2000/svg">
<mask id="path-1-outside-1_71_3" maskUnits="userSpaceOnUse" x="-0.855957" y="16" width="480" height="122" fill="black">
<rect fill="white" x="-0.855957" y="16" width="480" height="122"/>
<path d="M17 119V40.268H29.852V107.876H72.404V119H17ZM105.229 120.08C87.1933 120.08 75.6373 107.444 75.6373 88.544C75.6373 69.32 87.3013 56.792 105.229 56.792C123.157 56.792 134.713 69.32 134.713 88.436C134.713 107.552 123.157 120.08 105.229 120.08ZM105.229 109.496C115.813 109.496 122.077 101.612 122.077 88.328C122.077 75.044 115.813 67.376 105.229 67.376C94.5373 67.376 88.2733 75.26 88.2733 88.436C88.2733 101.72 94.5373 109.496 105.229 109.496ZM172.621 119.972C154.693 119.972 143.137 107.336 143.137 88.328C143.137 69.32 154.909 56.792 172.729 56.792C187.957 56.792 197.569 65.324 199.081 77.96L186.985 79.472C186.121 71.372 180.505 67.484 172.513 67.484C162.253 67.484 155.989 75.26 155.989 88.328C155.989 101.396 162.145 109.28 172.513 109.28C180.721 109.28 186.337 104.852 187.093 97.184L199.189 98.696C197.677 112.196 187.093 119.972 172.621 119.972ZM227.25 120.08C214.398 120.08 207.054 113.168 207.054 102.908C207.054 91.136 215.802 86.06 226.386 84.116L239.346 81.74C245.394 80.66 246.798 78.392 246.798 74.72C246.798 69.752 243.774 66.404 235.026 66.404C226.386 66.404 220.878 69.86 220.986 77.096L209.214 75.8C209.322 63.704 219.69 56.792 235.134 56.792C251.01 56.792 259.326 63.164 259.326 75.476V105.176C259.326 109.28 261.162 110.144 263.106 110.144C264.294 110.144 264.726 110.036 264.942 109.928H265.59V118.784C263.97 119.54 260.946 119.864 259.434 119.864C253.062 119.864 248.742 116.948 248.418 110.792V109.064C245.286 115.76 236.97 120.08 227.25 120.08ZM230.598 110.36C238.914 110.36 245.07 106.58 247.014 100.208V88.652C245.394 89.516 242.802 90.056 238.914 90.92L230.166 92.648C221.958 94.268 219.906 98.048 219.906 101.936C219.906 107.66 224.334 110.36 230.598 110.36ZM289.667 119.756C280.919 119.756 276.599 115.868 276.599 108.524V67.268L268.499 67.376V57.872L276.599 57.98V41.132L288.911 40.052V57.98L298.847 57.872V67.376L288.911 67.268V103.664C288.911 108.092 289.883 109.28 293.879 109.28C296.039 109.28 297.659 109.064 298.847 108.74V118.676C295.607 119.432 292.367 119.756 289.667 119.756ZM312.498 48.152V33.896H324.378V48.152H312.498ZM312.066 119V57.872H324.702V119H312.066ZM367.319 120.08C349.283 120.08 337.727 107.444 337.727 88.544C337.727 69.32 349.391 56.792 367.319 56.792C385.247 56.792 396.803 69.32 396.803 88.436C396.803 107.552 385.247 120.08 367.319 120.08ZM367.319 109.496C377.903 109.496 384.167 101.612 384.167 88.328C384.167 75.044 377.903 67.376 367.319 67.376C356.627 67.376 350.363 75.26 350.363 88.436C350.363 101.72 356.627 109.496 367.319 109.496ZM408.359 119V57.872H419.915L420.563 66.836C425.639 59.924 431.903 56.792 440.219 56.792C452.531 56.792 461.171 63.812 461.171 78.068V119H448.643V79.58C448.643 72.344 444.431 67.916 436.331 67.916C428.015 67.916 421.103 73.532 420.995 82.712V119H408.359Z"/>
</mask>
<path d="M17 119V40.268H29.852V107.876H72.404V119H17ZM105.229 120.08C87.1933 120.08 75.6373 107.444 75.6373 88.544C75.6373 69.32 87.3013 56.792 105.229 56.792C123.157 56.792 134.713 69.32 134.713 88.436C134.713 107.552 123.157 120.08 105.229 120.08ZM105.229 109.496C115.813 109.496 122.077 101.612 122.077 88.328C122.077 75.044 115.813 67.376 105.229 67.376C94.5373 67.376 88.2733 75.26 88.2733 88.436C88.2733 101.72 94.5373 109.496 105.229 109.496ZM172.621 119.972C154.693 119.972 143.137 107.336 143.137 88.328C143.137 69.32 154.909 56.792 172.729 56.792C187.957 56.792 197.569 65.324 199.081 77.96L186.985 79.472C186.121 71.372 180.505 67.484 172.513 67.484C162.253 67.484 155.989 75.26 155.989 88.328C155.989 101.396 162.145 109.28 172.513 109.28C180.721 109.28 186.337 104.852 187.093 97.184L199.189 98.696C197.677 112.196 187.093 119.972 172.621 119.972ZM227.25 120.08C214.398 120.08 207.054 113.168 207.054 102.908C207.054 91.136 215.802 86.06 226.386 84.116L239.346 81.74C245.394 80.66 246.798 78.392 246.798 74.72C246.798 69.752 243.774 66.404 235.026 66.404C226.386 66.404 220.878 69.86 220.986 77.096L209.214 75.8C209.322 63.704 219.69 56.792 235.134 56.792C251.01 56.792 259.326 63.164 259.326 75.476V105.176C259.326 109.28 261.162 110.144 263.106 110.144C264.294 110.144 264.726 110.036 264.942 109.928H265.59V118.784C263.97 119.54 260.946 119.864 259.434 119.864C253.062 119.864 248.742 116.948 248.418 110.792V109.064C245.286 115.76 236.97 120.08 227.25 120.08ZM230.598 110.36C238.914 110.36 245.07 106.58 247.014 100.208V88.652C245.394 89.516 242.802 90.056 238.914 90.92L230.166 92.648C221.958 94.268 219.906 98.048 219.906 101.936C219.906 107.66 224.334 110.36 230.598 110.36ZM289.667 119.756C280.919 119.756 276.599 115.868 276.599 108.524V67.268L268.499 67.376V57.872L276.599 57.98V41.132L288.911 40.052V57.98L298.847 57.872V67.376L288.911 67.268V103.664C288.911 108.092 289.883 109.28 293.879 109.28C296.039 109.28 297.659 109.064 298.847 108.74V118.676C295.607 119.432 292.367 119.756 289.667 119.756ZM312.498 48.152V33.896H324.378V48.152H312.498ZM312.066 119V57.872H324.702V119H312.066ZM367.319 120.08C349.283 120.08 337.727 107.444 337.727 88.544C337.727 69.32 349.391 56.792 367.319 56.792C385.247 56.792 396.803 69.32 396.803 88.436C396.803 107.552 385.247 120.08 367.319 120.08ZM367.319 109.496C377.903 109.496 384.167 101.612 384.167 88.328C384.167 75.044 377.903 67.376 367.319 67.376C356.627 67.376 350.363 75.26 350.363 88.436C350.363 101.72 356.627 109.496 367.319 109.496ZM408.359 119V57.872H419.915L420.563 66.836C425.639 59.924 431.903 56.792 440.219 56.792C452.531 56.792 461.171 63.812 461.171 78.068V119H448.643V79.58C448.643 72.344 444.431 67.916 436.331 67.916C428.015 67.916 421.103 73.532 420.995 82.712V119H408.359Z" fill="#A2A1FF"/>
<path d="M17 119H4.29153e-05V136H17V119ZM17 40.268V23.268H4.29153e-05V40.268H17ZM29.852 40.268H46.852V23.268H29.852V40.268ZM29.852 107.876H12.852V124.876H29.852V107.876ZM72.404 107.876H89.404V90.876H72.404V107.876ZM72.404 119V136H89.404V119H72.404ZM17 119H34V40.268H17H4.29153e-05V119H17ZM17 40.268V57.268H29.852V40.268V23.268H17V40.268ZM29.852 40.268H12.852V107.876H29.852H46.852V40.268H29.852ZM29.852 107.876V124.876H72.404V107.876V90.876H29.852V107.876ZM72.404 107.876H55.404V119H72.404H89.404V107.876H72.404ZM72.404 119V102H17V119V136H72.404V119ZM105.229 120.08V103.08C100.364 103.08 97.6707 101.489 96.1089 99.812C94.4306 98.0104 92.6373 94.547 92.6373 88.544H75.6373H58.6373C58.6373 101.441 62.622 113.746 71.2307 122.987C79.9559 132.353 92.0587 137.08 105.229 137.08V120.08ZM75.6373 88.544H92.6373C92.6373 82.3532 94.4723 78.8464 96.1483 77.0476C97.713 75.3682 100.4 73.792 105.229 73.792V56.792V39.792C92.1305 39.792 80.0216 44.4798 71.2723 53.8704C62.6343 63.1416 58.6373 75.5108 58.6373 88.544H75.6373ZM105.229 56.792V73.792C110.053 73.792 112.705 75.364 114.24 77.0167C115.894 78.797 117.713 82.2807 117.713 88.436H134.713H151.713C151.713 75.4753 147.754 63.137 139.149 53.8743C130.424 44.484 118.333 39.792 105.229 39.792V56.792ZM134.713 88.436H117.713C117.713 94.5913 115.894 98.075 114.24 99.8553C112.705 101.508 110.053 103.08 105.229 103.08V120.08V137.08C118.333 137.08 130.424 132.388 139.149 122.998C147.754 113.735 151.713 101.397 151.713 88.436H134.713ZM105.229 109.496V126.496C115.149 126.496 124.483 122.576 130.926 114.477C136.965 106.886 139.077 97.3912 139.077 88.328H122.077H105.077C105.077 92.5488 104.058 93.638 104.319 93.3099C104.494 93.0892 104.839 92.7872 105.272 92.5894C105.673 92.4068 105.746 92.496 105.229 92.496V109.496ZM122.077 88.328H139.077C139.077 79.2664 136.965 69.7639 130.848 62.1899C124.334 54.1229 114.989 50.376 105.229 50.376V67.376V84.376C105.81 84.376 105.779 84.4758 105.398 84.3055C104.976 84.1173 104.607 83.8124 104.396 83.5511C104.058 83.1321 105.077 84.1056 105.077 88.328H122.077ZM105.229 67.376V50.376C95.3152 50.376 85.9614 54.2498 79.4815 62.3271C73.3984 69.9097 71.2733 79.4 71.2733 88.436H88.2733H105.273C105.273 84.296 106.28 83.2563 106.002 83.6029C105.82 83.8292 105.48 84.12 105.071 84.3049C104.697 84.4741 104.662 84.376 105.229 84.376V67.376ZM88.2733 88.436H71.2733C71.2733 97.4966 73.3853 107.015 79.501 114.61C86.0186 122.704 95.3903 126.496 105.229 126.496V109.496V92.496C104.63 92.496 104.648 92.3928 105.019 92.5588C105.429 92.7425 105.784 93.039 105.983 93.2854C106.293 93.6711 105.273 92.6594 105.273 88.436H88.2733ZM199.081 77.96L201.19 94.8287L217.97 92.7312L215.961 75.9402L199.081 77.96ZM186.985 79.472L170.081 81.2751L171.917 98.4878L189.094 96.3407L186.985 79.472ZM187.093 97.184L189.202 80.3153L171.887 78.151L170.175 95.516L187.093 97.184ZM199.189 98.696L216.084 100.588L217.952 83.909L201.298 81.8273L199.189 98.696ZM172.621 119.972V102.972C167.84 102.972 165.182 101.402 163.625 99.722C161.946 97.9103 160.137 94.4093 160.137 88.328H143.137H126.137C126.137 101.255 130.107 113.576 138.688 122.834C147.391 132.224 159.474 136.972 172.621 136.972V119.972ZM143.137 88.328H160.137C160.137 82.3342 161.946 78.8769 163.645 77.0671C165.25 75.358 167.973 73.792 172.729 73.792V56.792V39.792C159.666 39.792 147.593 44.49 138.856 53.7969C130.214 63.0031 126.137 75.3138 126.137 88.328H143.137ZM172.729 56.792V73.792C177.163 73.792 179.32 74.9992 180.224 75.7455C181.044 76.4228 181.915 77.5852 182.202 79.9798L199.081 77.96L215.961 75.9402C214.735 65.6988 210.045 56.2772 201.874 49.5295C193.786 42.8508 183.524 39.792 172.729 39.792V56.792ZM199.081 77.96L196.973 61.0913L184.877 62.6033L186.985 79.472L189.094 96.3407L201.19 94.8287L199.081 77.96ZM186.985 79.472L203.889 77.6689C203.052 69.8168 199.605 62.3521 192.963 57.103C186.619 52.0892 179.12 50.484 172.513 50.484V67.484V84.484C173.899 84.484 173.203 84.8228 171.881 83.778C171.212 83.2493 170.691 82.5906 170.364 81.9535C170.055 81.3517 170.056 81.0429 170.081 81.2751L186.985 79.472ZM172.513 67.484V50.484C162.674 50.484 153.46 54.4346 147.105 62.4163C141.13 69.9196 138.989 79.3102 138.989 88.328H155.989H172.989C172.989 84.2778 173.98 83.2464 173.703 83.5947C173.524 83.8195 173.169 84.1352 172.703 84.3494C172.264 84.5511 172.118 84.484 172.513 84.484V67.484ZM155.989 88.328H138.989C138.989 97.2812 141.073 106.677 147.001 114.214C153.336 122.269 162.581 126.28 172.513 126.28V109.28V92.28C172.1 92.28 172.252 92.2095 172.707 92.4202C173.189 92.6439 173.549 92.9707 173.725 93.1949C173.867 93.3743 173.682 93.2207 173.454 92.4276C173.223 91.6227 172.989 90.2898 172.989 88.328H155.989ZM172.513 109.28V126.28C179.612 126.28 187.152 124.346 193.363 119.265C199.761 114.03 203.24 106.671 204.011 98.852L187.093 97.184L170.175 95.516C170.173 95.5348 170.21 95.1661 170.504 94.5901C170.807 93.9955 171.267 93.4135 171.833 92.9502C172.995 91.9996 173.623 92.28 172.513 92.28V109.28ZM187.093 97.184L184.985 114.053L197.081 115.565L199.189 98.696L201.298 81.8273L189.202 80.3153L187.093 97.184ZM199.189 98.696L182.295 96.8038C182.018 99.2762 181.135 100.347 180.293 101.005C179.232 101.835 176.89 102.972 172.621 102.972V119.972V136.972C182.825 136.972 193.01 134.221 201.237 127.788C209.684 121.183 214.849 111.616 216.084 100.588L199.189 98.696ZM226.386 84.116L223.32 67.3947L223.315 67.3957L226.386 84.116ZM239.346 81.74L236.357 65.0047L236.319 65.0116L236.28 65.0187L239.346 81.74ZM220.986 77.096L219.126 93.9939L238.271 96.1017L237.984 76.8423L220.986 77.096ZM209.214 75.8L192.215 75.6482L192.077 91.0161L207.354 92.6979L209.214 75.8ZM264.942 109.928V92.928H260.929L257.339 94.7227L264.942 109.928ZM265.59 109.928H282.59V92.928H265.59V109.928ZM265.59 118.784L272.779 134.189L282.59 129.611V118.784H265.59ZM248.418 110.792H231.418V111.239L231.441 111.686L248.418 110.792ZM248.418 109.064H265.418L233.019 101.861L248.418 109.064ZM247.014 100.208L263.274 105.169L264.014 102.744V100.208H247.014ZM247.014 88.652H264.014V60.3187L239.014 73.652L247.014 88.652ZM238.914 90.92L242.208 107.598L242.405 107.559L242.602 107.515L238.914 90.92ZM230.166 92.648L233.458 109.326L233.46 109.326L230.166 92.648ZM227.25 120.08V103.08C223.757 103.08 223.08 102.156 223.523 102.545C223.736 102.731 223.936 103.007 224.046 103.266C224.144 103.496 224.054 103.435 224.054 102.908H207.054H190.054C190.054 112.33 193.57 121.518 201.141 128.138C208.47 134.548 217.891 137.08 227.25 137.08V120.08ZM207.054 102.908H224.054C224.054 102.114 224.19 102.034 224.055 102.331C223.914 102.639 223.733 102.803 223.761 102.779C223.846 102.707 224.266 102.384 225.271 101.978C226.278 101.571 227.657 101.167 229.457 100.836L226.386 84.116L223.315 67.3957C216.601 68.6289 208.458 71.1639 201.741 76.8735C194.329 83.174 190.054 92.1705 190.054 102.908H207.054ZM226.386 84.116L229.451 100.837L242.411 98.4613L239.346 81.74L236.28 65.0187L223.32 67.3947L226.386 84.116ZM239.346 81.74L242.334 98.4753C246.598 97.7139 252.8 96.0133 257.643 90.9333C263.062 85.2499 263.798 78.5892 263.798 74.72H246.798H229.798C229.798 74.5228 229.831 70.8321 233.036 67.4707C235.666 64.7127 238.142 64.6861 236.357 65.0047L239.346 81.74ZM246.798 74.72H263.798C263.798 68.5834 261.738 60.8834 254.717 55.3485C248.527 50.4687 241.059 49.404 235.026 49.404V66.404V83.404C237.74 83.404 236.159 84.0133 233.668 82.0495C232.274 80.9508 231.162 79.4673 230.487 77.8409C229.862 76.3347 229.798 75.1649 229.798 74.72H246.798ZM235.026 66.404V49.404C228.851 49.404 221.241 50.5733 214.758 55.265C207.382 60.6038 203.86 68.7608 203.988 77.3497L220.986 77.096L237.984 76.8423C237.99 77.2318 237.922 78.3028 237.279 79.6568C236.616 81.0564 235.637 82.1242 234.693 82.808C233.828 83.4337 233.244 83.5625 233.337 83.539C233.431 83.5152 233.957 83.404 235.026 83.404V66.404ZM220.986 77.096L222.846 60.1981L211.074 58.9021L209.214 75.8L207.354 92.6979L219.126 93.9939L220.986 77.096ZM209.214 75.8L226.213 75.9518C226.218 75.3996 226.32 75.3803 226.202 75.6054C226.088 75.8231 226.013 75.8012 226.304 75.5935C227.063 75.0511 229.671 73.792 235.134 73.792V56.792V39.792C225.153 39.792 214.854 41.9889 206.542 47.9265C197.626 54.2949 192.318 64.1097 192.215 75.6482L209.214 75.8ZM235.134 56.792V73.792C238.015 73.792 240.011 74.0862 241.3 74.4242C242.568 74.7567 242.916 75.0669 242.805 74.9816C242.616 74.8355 242.359 74.5274 242.226 74.226C242.129 74.0074 242.326 74.301 242.326 75.476H259.326H276.326C276.326 65.1391 272.595 55.0153 263.561 48.0524C255.305 41.6887 244.924 39.792 235.134 39.792V56.792ZM259.326 75.476H242.326V105.176H259.326H276.326V75.476H259.326ZM259.326 105.176H242.326C242.326 109.339 243.205 115.76 248.241 120.991C253.484 126.435 259.88 127.144 263.106 127.144V110.144V93.144C264.388 93.144 268.894 93.4214 272.732 97.4071C276.365 101.18 276.326 105.117 276.326 105.176H259.326ZM263.106 110.144V127.144C264.443 127.144 268.454 127.179 272.544 125.133L264.942 109.928L257.339 94.7227C259.373 93.7057 261.123 93.3704 261.984 93.2474C262.799 93.131 263.272 93.144 263.106 93.144V110.144ZM264.942 109.928V126.928H265.59V109.928V92.928H264.942V109.928ZM265.59 109.928H248.59V118.784H265.59H282.59V109.928H265.59ZM265.59 118.784L258.401 103.379C258.885 103.153 259.266 103.014 259.487 102.94C259.718 102.862 259.878 102.819 259.949 102.801C260.075 102.769 260.063 102.778 259.901 102.803C259.754 102.825 259.585 102.845 259.435 102.857C259.264 102.871 259.259 102.864 259.434 102.864V119.864V136.864C261.157 136.864 263.156 136.7 265.042 136.412C266.638 136.168 269.731 135.612 272.779 134.189L265.59 118.784ZM259.434 119.864V102.864C258.592 102.864 260.084 102.645 262.128 104.243C263.201 105.082 264.096 106.187 264.688 107.413C265.258 108.594 265.375 109.522 265.394 109.898L248.418 110.792L231.441 111.686C231.821 118.904 234.826 126.057 241.188 131.03C247.066 135.625 253.904 136.864 259.434 136.864V119.864ZM248.418 110.792H265.418V109.064H248.418H231.418V110.792H248.418ZM248.418 109.064L233.019 101.861C233.331 101.195 233.503 101.458 232.46 102.001C231.434 102.535 229.659 103.08 227.25 103.08V120.08V137.08C241.075 137.08 256.967 130.911 263.817 116.267L248.418 109.064ZM230.598 110.36V127.36C243.88 127.36 258.494 120.837 263.274 105.169L247.014 100.208L230.754 95.2473C230.871 94.8637 231.089 94.4151 231.42 93.993C231.746 93.5778 232.069 93.3289 232.266 93.2072C232.633 92.981 232.253 93.36 230.598 93.36V110.36ZM247.014 100.208H264.014V88.652H247.014H230.014V100.208H247.014ZM247.014 88.652L239.014 73.652C239.592 73.3437 239.978 73.2098 240.007 73.1998C240.041 73.1878 239.906 73.2358 239.496 73.3436C239.092 73.4498 238.56 73.5777 237.817 73.7471C237.06 73.9194 236.256 74.0959 235.226 74.3248L238.914 90.92L242.602 107.515C244.34 107.129 246.394 106.685 248.133 106.228C249.79 105.793 252.404 105.044 255.014 103.652L247.014 88.652ZM238.914 90.92L235.62 74.2423L226.872 75.9703L230.166 92.648L233.46 109.326L242.208 107.598L238.914 90.92ZM230.166 92.648L226.874 75.9697C220.813 77.1659 214.435 79.6356 209.584 84.7839C204.37 90.3189 202.906 96.8076 202.906 101.936H219.906H236.906C236.906 102.446 236.839 103.42 236.42 104.632C235.977 105.912 235.256 107.118 234.331 108.099C232.559 109.98 231.31 109.75 233.458 109.326L230.166 92.648ZM219.906 101.936H202.906C202.906 109.77 206.246 117.145 212.829 121.988C218.665 126.282 225.367 127.36 230.598 127.36V110.36V93.36C229.565 93.36 230.92 93.088 232.977 94.6012C234.119 95.4414 235.228 96.6736 235.992 98.2504C236.743 99.7974 236.906 101.145 236.906 101.936H219.906ZM276.599 67.268H293.599V50.0398L276.372 50.2695L276.599 67.268ZM268.499 67.376H251.499V84.6042L268.726 84.3745L268.499 67.376ZM268.499 57.872L268.726 40.8735L251.499 40.6438V57.872H268.499ZM276.599 57.98L276.372 74.9785L293.599 75.2082V57.98H276.599ZM276.599 41.132L275.114 24.197L259.599 25.5579V41.132H276.599ZM288.911 40.052H305.911V21.4955L287.426 23.117L288.911 40.052ZM288.911 57.98H271.911V75.1658L289.096 74.979L288.911 57.98ZM298.847 57.872H315.847V40.6862L298.662 40.873L298.847 57.872ZM298.847 67.376L298.662 84.375L315.847 84.5618V67.376H298.847ZM288.911 67.268L289.096 50.269L271.911 50.0822V67.268H288.911ZM298.847 108.74H315.847V86.4827L294.374 92.339L298.847 108.74ZM298.847 118.676L302.71 135.231L315.847 132.166V118.676H298.847ZM289.667 119.756V102.756C287.462 102.756 288.889 102.223 291.008 104.066C292.108 105.022 292.854 106.182 293.261 107.232C293.632 108.189 293.599 108.727 293.599 108.524H276.599H259.599C259.599 115.59 261.796 123.721 268.698 129.722C275.163 135.345 283.124 136.756 289.667 136.756V119.756ZM276.599 108.524H293.599V67.268H276.599H259.599V108.524H276.599ZM276.599 67.268L276.372 50.2695L268.272 50.3775L268.499 67.376L268.726 84.3745L276.826 84.2665L276.599 67.268ZM268.499 67.376H285.499V57.872H268.499H251.499V67.376H268.499ZM268.499 57.872L268.272 74.8705L276.372 74.9785L276.599 57.98L276.826 40.9815L268.726 40.8735L268.499 57.872ZM276.599 57.98H293.599V41.132H276.599H259.599V57.98H276.599ZM276.599 41.132L278.085 58.067L290.397 56.987L288.911 40.052L287.426 23.117L275.114 24.197L276.599 41.132ZM288.911 40.052H271.911V57.98H288.911H305.911V40.052H288.911ZM288.911 57.98L289.096 74.979L299.032 74.871L298.847 57.872L298.662 40.873L288.726 40.981L288.911 57.98ZM298.847 57.872H281.847V67.376H298.847H315.847V57.872H298.847ZM298.847 67.376L299.032 50.377L289.096 50.269L288.911 67.268L288.726 84.267L298.662 84.375L298.847 67.376ZM288.911 67.268H271.911V103.664H288.911H305.911V67.268H288.911ZM288.911 103.664H271.911C271.911 105.558 271.717 113.158 277.09 119.313C283.176 126.284 291.532 126.28 293.879 126.28V109.28V92.28C293.518 92.28 294.459 92.2284 295.947 92.6399C297.731 93.133 300.411 94.3272 302.703 96.9523C304.86 99.4226 305.547 101.884 305.765 102.929C305.964 103.878 305.911 104.323 305.911 103.664H288.911ZM293.879 109.28V126.28C297.088 126.28 300.287 125.968 303.32 125.141L298.847 108.74L294.374 92.339C294.733 92.2411 294.892 92.2306 294.79 92.2423C294.692 92.2535 294.401 92.28 293.879 92.28V109.28ZM298.847 108.74H281.847V118.676H298.847H315.847V108.74H298.847ZM298.847 118.676L294.984 102.121C293.056 102.571 291.114 102.756 289.667 102.756V119.756V136.756C293.62 136.756 298.159 136.293 302.71 135.231L298.847 118.676ZM312.498 48.152H295.498V65.152H312.498V48.152ZM312.498 33.896V16.896H295.498V33.896H312.498ZM324.378 33.896H341.378V16.896H324.378V33.896ZM324.378 48.152V65.152H341.378V48.152H324.378ZM312.066 119H295.066V136H312.066V119ZM312.066 57.872V40.872H295.066V57.872H312.066ZM324.702 57.872H341.702V40.872H324.702V57.872ZM324.702 119V136H341.702V119H324.702ZM312.498 48.152H329.498V33.896H312.498H295.498V48.152H312.498ZM312.498 33.896V50.896H324.378V33.896V16.896H312.498V33.896ZM324.378 33.896H307.378V48.152H324.378H341.378V33.896H324.378ZM324.378 48.152V31.152H312.498V48.152V65.152H324.378V48.152ZM312.066 119H329.066V57.872H312.066H295.066V119H312.066ZM312.066 57.872V74.872H324.702V57.872V40.872H312.066V57.872ZM324.702 57.872H307.702V119H324.702H341.702V57.872H324.702ZM324.702 119V102H312.066V119V136H324.702V119ZM367.319 120.08V103.08C362.454 103.08 359.76 101.489 358.199 99.812C356.52 98.0104 354.727 94.547 354.727 88.544H337.727H320.727C320.727 101.441 324.712 113.746 333.321 122.987C342.046 132.353 354.149 137.08 367.319 137.08V120.08ZM337.727 88.544H354.727C354.727 82.3532 356.562 78.8464 358.238 77.0476C359.803 75.3682 362.49 73.792 367.319 73.792V56.792V39.792C354.22 39.792 342.111 44.4798 333.362 53.8704C324.724 63.1416 320.727 75.5108 320.727 88.544H337.727ZM367.319 56.792V73.792C372.143 73.792 374.794 75.364 376.33 77.0167C377.984 78.797 379.803 82.2807 379.803 88.436H396.803H413.803C413.803 75.4753 409.844 63.137 401.238 53.8743C392.514 44.484 380.423 39.792 367.319 39.792V56.792ZM396.803 88.436H379.803C379.803 94.5913 377.984 98.075 376.33 99.8553C374.794 101.508 372.143 103.08 367.319 103.08V120.08V137.08C380.423 137.08 392.514 132.388 401.238 122.998C409.844 113.735 413.803 101.397 413.803 88.436H396.803ZM367.319 109.496V126.496C377.239 126.496 386.573 122.576 393.016 114.477C399.055 106.886 401.167 97.3912 401.167 88.328H384.167H367.167C367.167 92.5488 366.147 93.638 366.408 93.3099C366.584 93.0892 366.929 92.7872 367.362 92.5894C367.763 92.4068 367.836 92.496 367.319 92.496V109.496ZM384.167 88.328H401.167C401.167 79.2664 399.054 69.7639 392.938 62.1899C386.424 54.1229 377.079 50.376 367.319 50.376V67.376V84.376C367.9 84.376 367.869 84.4758 367.488 84.3055C367.066 84.1173 366.697 83.8124 366.486 83.5511C366.148 83.1321 367.167 84.1056 367.167 88.328H384.167ZM367.319 67.376V50.376C357.405 50.376 348.051 54.2498 341.571 62.3271C335.488 69.9097 333.363 79.4 333.363 88.436H350.363H367.363C367.363 84.296 368.37 83.2563 368.092 83.6029C367.91 83.8292 367.57 84.12 367.161 84.3049C366.787 84.4741 366.752 84.376 367.319 84.376V67.376ZM350.363 88.436H333.363C333.363 97.4966 335.475 107.015 341.591 114.61C348.108 122.704 357.48 126.496 367.319 126.496V109.496V92.496C366.72 92.496 366.738 92.3928 367.109 92.5588C367.519 92.7425 367.874 93.039 368.072 93.2854C368.383 93.6711 367.363 92.6594 367.363 88.436H350.363ZM408.359 119H391.359V136H408.359V119ZM408.359 57.872V40.872H391.359V57.872H408.359ZM419.915 57.872L436.871 56.6463L435.731 40.872H419.915V57.872ZM420.563 66.836L403.607 68.0617L406.936 114.112L434.265 76.8985L420.563 66.836ZM461.171 119V136H478.171V119H461.171ZM448.643 119H431.643V136H448.643V119ZM420.995 82.712L403.996 82.512L403.995 82.612V82.712H420.995ZM420.995 119V136H437.995V119H420.995ZM408.359 119H425.359V57.872H408.359H391.359V119H408.359ZM408.359 57.872V74.872H419.915V57.872V40.872H408.359V57.872ZM419.915 57.872L402.959 59.0977L403.607 68.0617L420.563 66.836L437.519 65.6103L436.871 56.6463L419.915 57.872ZM420.563 66.836L434.265 76.8985C435.522 75.1877 436.414 74.6132 436.88 74.3764C437.339 74.143 438.258 73.792 440.219 73.792V56.792V39.792C426.451 39.792 415.116 45.5331 406.861 56.7735L420.563 66.836ZM440.219 56.792V73.792C443.236 73.792 443.822 74.618 443.563 74.3709C443.476 74.2877 443.566 74.3141 443.719 74.7184C443.889 75.1707 444.171 76.2075 444.171 78.068H461.171H478.171C478.171 67.4359 474.855 57.2501 467.061 49.7971C459.404 42.476 449.514 39.792 440.219 39.792V56.792ZM461.171 78.068H444.171V119H461.171H478.171V78.068H461.171ZM461.171 119V102H448.643V119V136H461.171V119ZM448.643 119H465.643V79.58H448.643H431.643V119H448.643ZM448.643 79.58H465.643C465.643 72.685 463.57 64.8782 457.385 58.8555C451.255 52.8859 443.391 50.916 436.331 50.916V67.916V84.916C437.371 84.916 435.663 85.1601 433.664 83.2135C431.611 81.2138 431.643 79.239 431.643 79.58H448.643ZM436.331 67.916V50.916C419.91 50.916 404.228 62.8611 403.996 82.512L420.995 82.712L437.994 82.912C437.996 82.7555 438.016 82.9419 437.848 83.3268C437.681 83.7113 437.411 84.0921 437.078 84.3981C436.402 85.0181 435.973 84.916 436.331 84.916V67.916ZM420.995 82.712H403.995V119H420.995H437.995V82.712H420.995ZM420.995 119V102H408.359V119V136H420.995V119Z" fill="#A2A1FF" mask="url(#path-1-outside-1_71_3)"/>
<path d="M17 119V40.268H29.852V107.876H72.404V119H17ZM105.229 120.08C87.1933 120.08 75.6373 107.444 75.6373 88.544C75.6373 69.32 87.3013 56.792 105.229 56.792C123.157 56.792 134.713 69.32 134.713 88.436C134.713 107.552 123.157 120.08 105.229 120.08ZM105.229 109.496C115.813 109.496 122.077 101.612 122.077 88.328C122.077 75.044 115.813 67.376 105.229 67.376C94.5373 67.376 88.2733 75.26 88.2733 88.436C88.2733 101.72 94.5373 109.496 105.229 109.496ZM172.621 119.972C154.693 119.972 143.137 107.336 143.137 88.328C143.137 69.32 154.909 56.792 172.729 56.792C187.957 56.792 197.569 65.324 199.081 77.96L186.985 79.472C186.121 71.372 180.505 67.484 172.513 67.484C162.253 67.484 155.989 75.26 155.989 88.328C155.989 101.396 162.145 109.28 172.513 109.28C180.721 109.28 186.337 104.852 187.093 97.184L199.189 98.696C197.677 112.196 187.093 119.972 172.621 119.972ZM227.25 120.08C214.398 120.08 207.054 113.168 207.054 102.908C207.054 91.136 215.802 86.06 226.386 84.116L239.346 81.74C245.394 80.66 246.798 78.392 246.798 74.72C246.798 69.752 243.774 66.404 235.026 66.404C226.386 66.404 220.878 69.86 220.986 77.096L209.214 75.8C209.322 63.704 219.69 56.792 235.134 56.792C251.01 56.792 259.326 63.164 259.326 75.476V105.176C259.326 109.28 261.162 110.144 263.106 110.144C264.294 110.144 264.726 110.036 264.942 109.928H265.59V118.784C263.97 119.54 260.946 119.864 259.434 119.864C253.062 119.864 248.742 116.948 248.418 110.792V109.064C245.286 115.76 236.97 120.08 227.25 120.08ZM230.598 110.36C238.914 110.36 245.07 106.58 247.014 100.208V88.652C245.394 89.516 242.802 90.056 238.914 90.92L230.166 92.648C221.958 94.268 219.906 98.048 219.906 101.936C219.906 107.66 224.334 110.36 230.598 110.36ZM289.667 119.756C280.919 119.756 276.599 115.868 276.599 108.524V67.268L268.499 67.376V57.872L276.599 57.98V41.132L288.911 40.052V57.98L298.847 57.872V67.376L288.911 67.268V103.664C288.911 108.092 289.883 109.28 293.879 109.28C296.039 109.28 297.659 109.064 298.847 108.74V118.676C295.607 119.432 292.367 119.756 289.667 119.756ZM312.498 48.152V33.896H324.378V48.152H312.498ZM312.066 119V57.872H324.702V119H312.066ZM367.319 120.08C349.283 120.08 337.727 107.444 337.727 88.544C337.727 69.32 349.391 56.792 367.319 56.792C385.247 56.792 396.803 69.32 396.803 88.436C396.803 107.552 385.247 120.08 367.319 120.08ZM367.319 109.496C377.903 109.496 384.167 101.612 384.167 88.328C384.167 75.044 377.903 67.376 367.319 67.376C356.627 67.376 350.363 75.26 350.363 88.436C350.363 101.72 356.627 109.496 367.319 109.496ZM408.359 119V57.872H419.915L420.563 66.836C425.639 59.924 431.903 56.792 440.219 56.792C452.531 56.792 461.171 63.812 461.171 78.068V119H448.643V79.58C448.643 72.344 444.431 67.916 436.331 67.916C428.015 67.916 421.103 73.532 420.995 82.712V119H408.359Z" fill="#0C1818"/>
</svg>
