<svg width="1749" height="171" viewBox="0 0 1749 171" fill="none" xmlns="http://www.w3.org/2000/svg">
<path d="M1610.12 3.48138V33.6129H1714.98V75.8862H1613.95V106.475H1714.98V166.973H1748.5V3.48138H1610.12Z" fill="#A2A1FF"/>
<path d="M1494.94 0C1442.51 0 1403.24 34.3324 1403.24 85.4838C1403.24 135.93 1442.51 170.5 1494.94 170.5C1547.37 170.5 1586.87 134.062 1586.87 85.4838C1586.87 36.1999 1547.61 0 1494.94 0ZM1494.94 139.201C1460.22 139.201 1436.76 117.013 1436.76 85.4838C1436.76 53.2529 1460.22 31.2952 1494.94 31.2952C1529.17 31.2952 1553.36 53.2529 1553.36 85.4838C1553.36 117.013 1528.93 139.201 1494.94 139.201Z" fill="#A2A1FF"/>
<path d="M1346.47 90.3648C1346.47 118.159 1327.55 138.475 1301.93 138.475C1275.84 138.475 1257.4 118.857 1257.4 90.3648V3.48138H1223.88V90.3648C1223.88 135.442 1255.48 169.774 1301.93 169.774C1347.42 169.774 1379.98 135.442 1379.98 90.3648V3.48138H1346.47L1346.47 90.3648Z" fill="#A2A1FF"/>
<path d="M1041.9 61.4009C1042.27 72.4686 1045.87 83.2045 1052.27 92.348C1058.67 101.492 1067.62 108.663 1078.05 113.02L1035.91 166.971H1077.57L1114.68 119.325H1160.17V166.971H1193.69V3.48138H1107.5C1071.59 3.48138 1041.9 26.6007 1041.9 61.4009ZM1160.17 88.7272H1107.5C1089.07 88.7272 1075.42 76.8165 1075.42 61.4009C1075.42 45.2874 1088.83 33.6106 1107.5 33.6106H1160.17V88.7272Z" fill="#A2A1FF"/>
<path d="M0 166.973H33.517V106.475H134.556V75.8862H33.517V33.6129H138.383V3.48138H0V166.973Z" fill="#A2A1FF"/>
<path d="M253.564 0C200.89 0 161.628 36.1999 161.628 85.4838C161.628 134.062 201.134 170.5 253.564 170.5C305.994 170.5 345.263 135.93 345.263 85.4838C345.263 34.3324 305.994 0 253.564 0ZM253.564 139.201C219.57 139.201 195.143 117.013 195.143 85.4838C195.143 53.2529 219.326 31.2952 253.564 31.2952C288.281 31.2952 311.741 53.2529 311.741 85.4838C311.741 117.013 288.281 139.201 253.564 139.201Z" fill="#A2A1FF"/>
<path d="M491.099 90.3648C491.099 118.857 472.664 138.475 446.57 138.475C420.949 138.475 402.033 118.159 402.033 90.3648V3.48138H368.519V90.3648C368.519 135.442 401.082 169.774 446.57 169.774C493.018 169.774 524.614 135.442 524.614 90.3648V3.48138H491.099V90.3648Z" fill="#A2A1FF"/>
<path d="M706.598 61.4011C706.598 26.6009 676.912 3.48138 640.999 3.48138H554.811V166.971H588.325V119.325H633.821L670.929 166.971H712.588L670.449 113.02C680.885 108.663 689.829 101.492 696.232 92.3482C702.635 83.2047 706.231 72.4688 706.598 61.4011ZM640.999 88.7274H588.325V33.6109H640.999C659.671 33.6109 673.083 45.2876 673.083 61.4011C673.083 76.8168 659.435 88.7274 640.999 88.7274Z" fill="#A2A1FF"/>
<path d="M963.057 80.1114H929.534C925.088 92.6605 917.807 104.074 908.229 113.508L885.005 94.8253C912.537 79.1757 925.226 62.8283 925.226 43.9077C925.226 18.2187 900.328 0 864.895 0C827.064 0 801.207 17.0492 801.207 41.5723C801.207 53.2529 805.28 62.5943 816.773 74.2711C793.306 85.016 779.902 102.299 779.902 122.853C779.902 152.281 813.417 171.197 848.85 170.5C870.585 169.924 891.727 163.453 909.904 151.813L928.34 166.995H973.348L932.169 133.364C946.729 118.313 957.329 100.039 963.057 80.1114ZM866.09 27.3263C882.372 27.3263 893.142 35.502 893.142 46.9448C893.142 56.5201 882.851 66.7972 863.22 76.8404C845.02 61.4247 838.558 53.4868 838.558 46.243C838.558 35.502 850.052 27.3263 866.09 27.3263ZM857.23 140.604C833.771 142.706 815.335 134.53 814.14 120.982C812.701 109.539 820.602 98.3302 835.445 90.1545L885.006 131.259C876.513 136.222 867.053 139.405 857.23 140.604Z" fill="#A2A1FF"/>
</svg>
