<svg width="1756" height="172" viewBox="0 0 1756 172" fill="none" xmlns="http://www.w3.org/2000/svg">
<path d="M1617.02 3.49512V33.7559H1722.34V76.2105H1620.87V106.931H1722.34V167.688H1756V3.49512H1617.02Z" fill="#0C1818"/>
<path d="M1501.35 0C1448.69 0 1409.25 34.4796 1409.25 85.8505C1409.25 136.513 1448.69 171.231 1501.35 171.231C1554 171.231 1593.68 134.637 1593.68 85.8505C1593.68 36.3552 1554.25 0 1501.35 0ZM1501.35 139.798C1466.48 139.798 1442.92 117.515 1442.92 85.8505C1442.92 53.4813 1466.48 31.4295 1501.35 31.4295C1535.73 31.4295 1560.02 53.4813 1560.02 85.8505C1560.02 117.515 1535.49 139.798 1501.35 139.798Z" fill="#0C1818"/>
<path d="M1352.24 90.7512C1352.24 118.665 1333.24 139.068 1307.51 139.068C1281.31 139.068 1262.79 119.365 1262.79 90.7512V3.49512H1229.13V90.7512C1229.13 136.022 1260.87 170.501 1307.51 170.501C1353.19 170.501 1385.9 136.022 1385.9 90.7512V3.49512H1352.24L1352.24 90.7512Z" fill="#0C1818"/>
<path d="M1046.37 61.6631C1046.74 72.7783 1050.35 83.5602 1056.78 92.743C1063.21 101.926 1072.19 109.128 1082.67 113.504L1040.35 167.686H1082.19L1119.46 119.835H1165.15V167.686H1198.81V3.49512H1112.25C1076.18 3.49512 1046.37 26.7136 1046.37 61.6631ZM1165.15 89.1066H1112.25C1093.74 89.1066 1080.03 77.1448 1080.03 61.6631C1080.03 45.4804 1093.5 33.7536 1112.25 33.7536H1165.15V89.1066Z" fill="#0C1818"/>
<path d="M0 167.688H33.6608V106.931H135.133V76.2105H33.6608V33.7559H138.977V3.49512H0V167.688Z" fill="#0C1818"/>
<path d="M254.651 0C201.752 0 162.322 36.3552 162.322 85.8505C162.322 134.637 201.997 171.231 254.651 171.231C307.306 171.231 346.744 136.513 346.744 85.8505C346.744 34.4796 307.306 0 254.651 0ZM254.651 139.798C220.511 139.798 195.98 117.515 195.98 85.8505C195.98 53.4813 220.267 31.4295 254.651 31.4295C289.518 31.4295 313.078 53.4813 313.078 85.8505C313.078 117.515 289.518 139.798 254.651 139.798Z" fill="#0C1818"/>
<path d="M493.205 90.7512C493.205 119.365 474.69 139.068 448.485 139.068C422.754 139.068 403.757 118.665 403.757 90.7512V3.49512H370.099V90.7512C370.099 136.022 402.802 170.501 448.485 170.501C495.132 170.501 526.864 136.022 526.864 90.7512V3.49512H493.205V90.7512Z" fill="#0C1818"/>
<path d="M709.627 61.6633C709.627 26.7138 679.814 3.49512 643.747 3.49512H557.189V167.686H590.847V119.835H636.539L673.805 167.686H715.644L673.324 113.504C683.804 109.128 692.787 101.926 699.217 92.7432C705.648 83.5605 709.259 72.7785 709.627 61.6633ZM643.747 89.1068H590.847V33.7538H643.747C662.499 33.7538 675.969 45.4807 675.969 61.6633C675.969 77.1451 662.262 89.1068 643.747 89.1068Z" fill="#0C1818"/>
<path d="M967.187 80.455H933.521C929.055 93.058 921.743 104.521 912.124 113.995L888.801 95.232C916.451 79.5154 929.194 63.0978 929.194 44.096C929.194 18.2968 904.189 0 868.604 0C830.611 0 804.643 17.1224 804.643 41.7506C804.643 53.4813 808.733 62.8628 820.276 74.5897C796.708 85.3807 783.247 102.738 783.247 123.38C783.247 152.934 816.905 171.932 852.49 171.231C874.319 170.653 895.551 164.154 913.806 152.464L932.321 167.711H977.523L936.166 133.936C950.79 118.82 961.435 100.468 967.187 80.455ZM869.804 27.4435C886.156 27.4435 896.973 35.6543 896.973 47.1462C896.973 56.7625 886.638 67.0837 866.923 77.17C848.645 61.6882 842.154 53.7163 842.154 46.4414C842.154 35.6543 853.698 27.4435 869.804 27.4435ZM860.906 141.207C837.346 143.318 818.831 135.107 817.631 121.501C816.187 110.009 824.121 98.752 839.028 90.5413L888.801 131.822C880.272 136.806 870.772 140.003 860.906 141.207Z" fill="#0C1818"/>
</svg>
