<svg width="470" height="46" viewBox="0 0 470 46" fill="none" xmlns="http://www.w3.org/2000/svg">
<path d="M432.803 0.935801V9.0352H460.991V20.3983H433.832V28.6208H460.991V44.8827H470V0.935801H432.803Z" fill="#A2A1FF"/>
<path d="M401.84 0C387.747 0 377.191 9.22859 377.191 22.9782C377.191 36.5382 387.747 45.8306 401.84 45.8306C415.934 45.8306 426.553 36.0361 426.553 22.9782C426.553 9.73058 415.999 0 401.84 0ZM401.84 37.4174C392.508 37.4174 386.202 31.4533 386.202 22.9782C386.202 14.3145 392.508 8.41221 401.84 8.41221C411.044 8.41221 417.544 14.3145 417.544 22.9782C417.544 31.4533 410.978 37.4174 401.84 37.4174Z" fill="#A2A1FF"/>
<path d="M361.932 24.2902C361.932 31.7613 356.848 37.2224 349.961 37.2224C342.947 37.2224 337.991 31.9489 337.991 24.2902V0.935801H328.982V24.2902C328.982 36.407 337.476 45.6356 349.961 45.6356C362.188 45.6356 370.941 36.407 370.941 24.2902V0.935801H361.932L361.932 24.2902Z" fill="#A2A1FF"/>
<path d="M280.064 16.5047C280.163 19.4797 281.129 22.3655 282.851 24.8233C284.572 27.2811 286.976 29.2088 289.781 30.38L278.454 44.8821H289.652L299.627 32.0746H311.856V44.8821H320.865V0.935801H297.697C288.044 0.935801 280.064 7.15031 280.064 16.5047ZM311.856 23.85H297.697C292.742 23.85 289.073 20.6484 289.073 16.5047C289.073 12.1733 292.678 9.03458 297.697 9.03458H311.856V23.85Z" fill="#A2A1FF"/>
<path d="M0 44.8827H9.00941V28.6208H36.1687V20.3983H9.00941V9.0352H37.1976V0.935801H0V44.8827Z" fill="#A2A1FF"/>
<path d="M68.1586 0C53.9998 0 43.4463 9.73058 43.4463 22.9782C43.4463 36.0361 54.0654 45.8306 68.1586 45.8306C82.2518 45.8306 92.8076 36.5381 92.8076 22.9782C92.8076 9.22859 82.2519 0 68.1586 0ZM68.1586 37.4174C59.0209 37.4174 52.4551 31.4533 52.4551 22.9782C52.4551 14.3145 58.9554 8.41221 68.1586 8.41221C77.4907 8.41221 83.7967 14.3145 83.7967 22.9782C83.7967 31.4533 77.4907 37.4174 68.1586 37.4174Z" fill="#A2A1FF"/>
<path d="M132.008 24.2902C132.008 31.9489 127.053 37.2224 120.039 37.2224C113.152 37.2224 108.067 31.7613 108.067 24.2902V0.935801H99.0586V24.2902C99.0586 36.407 107.812 45.6356 120.039 45.6356C132.524 45.6356 141.017 36.407 141.017 24.2902V0.935801H132.008V24.2902Z" fill="#A2A1FF"/>
<path d="M189.934 16.5047C189.934 7.15037 181.955 0.935801 172.301 0.935801H149.134V44.8821H158.143V32.0747H170.372L180.347 44.8821H191.545L180.218 30.3801C183.023 29.2088 185.427 27.2811 187.148 24.8233C188.869 22.3656 189.836 19.4797 189.934 16.5047ZM172.301 23.8501H158.143V9.03465H172.301C177.32 9.03465 180.926 12.1734 180.926 16.5047C180.926 20.6485 177.257 23.8501 172.301 23.8501Z" fill="#A2A1FF"/>
<path d="M258.871 21.534H249.86C248.665 24.9073 246.708 27.9753 244.133 30.5111L237.891 25.4892C245.291 21.2825 248.702 16.8883 248.702 11.8024C248.702 4.8972 242.009 0 232.485 0C222.316 0 215.366 4.58285 215.366 11.1747C215.366 14.3145 216.46 16.8254 219.55 19.9642C213.242 22.8524 209.639 27.4982 209.639 33.0231C209.639 40.9334 218.647 46.0181 228.172 45.8306C234.015 45.6758 239.697 43.9365 244.583 40.8076L249.539 44.8885H261.637L250.568 35.8485C254.482 31.8026 257.331 26.8906 258.871 21.534ZM232.806 7.34535C237.183 7.34535 240.078 9.54298 240.078 12.6188C240.078 15.1927 237.312 17.9552 232.035 20.6548C227.143 16.5111 225.406 14.3773 225.406 12.4302C225.406 9.54298 228.495 7.34535 232.806 7.34535ZM230.425 37.7946C224.119 38.3595 219.163 36.1619 218.842 32.5201C218.455 29.4442 220.579 26.4313 224.569 24.2337L237.891 35.2826C235.608 36.6166 233.065 37.4721 230.425 37.7946Z" fill="#A2A1FF"/>
</svg>
