<svg width="769" height="235" viewBox="0 0 769 235" fill="none" xmlns="http://www.w3.org/2000/svg">
<g clip-path="url(#clip0_70_2)">
<path d="M19.2139 60.3762C19.2139 34.564 33.6971 19.7515 56.3516 19.7515C76.0652 19.7515 88.59 30.6438 90.7702 46.9796L77.6994 48.8322C75.6285 37.1775 67.5697 31.4063 56.2424 31.4063C40.5617 31.4063 32.827 42.6244 32.827 60.3762C32.827 79.8714 41.8684 89.4552 56.1333 89.4552C68.7673 89.4552 76.1743 82.594 78.027 71.9203L90.9851 73.3362C88.6992 91.1988 74.8677 101.218 55.9184 101.218C32.6088 101.217 19.2139 85.4258 19.2139 60.3762Z" fill="#A2A1FF" stroke="#A2A1FF" stroke-width="38.4308" stroke-miterlimit="10"/>
<path d="M99.5732 69.4157C99.5732 50.0297 111.337 37.3958 129.417 37.3958C147.496 37.3958 159.147 50.0298 159.147 69.3066C159.147 88.5852 147.496 101.217 129.417 101.217C111.228 101.217 99.5732 88.4758 99.5732 69.4157ZM146.404 69.1973C146.404 55.8024 140.089 48.0696 129.417 48.0696C118.632 48.0696 112.316 56.0191 112.316 69.3065C112.316 82.703 118.632 90.5451 129.417 90.5451C140.089 90.5451 146.404 82.5939 146.404 69.1973Z" fill="#A2A1FF" stroke="#A2A1FF" stroke-width="38.4308" stroke-miterlimit="10"/>
<path d="M170.784 38.484H182.217L183.091 47.9604C184.877 44.6895 187.529 41.9735 190.757 40.11C193.984 38.2465 197.662 37.3074 201.388 37.3957C205.367 37.2129 209.301 38.2949 212.627 40.4864C215.953 42.678 218.499 45.8665 219.901 49.5947C221.673 45.8633 224.488 42.7253 228.006 40.5604C231.524 38.3954 235.594 37.2962 239.724 37.3957C253.013 37.3957 260.307 45.6728 260.307 58.4159V100.129H247.567V60.9202C247.567 53.1873 243.753 48.6137 236.568 48.6137C227.854 48.6137 221.863 54.6032 221.863 64.6237V100.129H209.119V61.6828C209.119 53.9498 205.745 48.6137 198.011 48.6137C196.011 48.6002 194.03 49.0024 192.194 49.7948C190.358 50.5873 188.707 51.7527 187.345 53.2172C185.983 54.6816 184.941 56.4131 184.283 58.3018C183.626 60.1905 183.369 62.1952 183.527 64.1887V100.129H170.784V38.484Z" fill="#A2A1FF" stroke="#A2A1FF" stroke-width="38.4308" stroke-miterlimit="10"/>
<path d="M275.093 38.4841H287.836V100.129H275.093V38.4841ZM275.527 14.3062H287.509V28.6836H275.527V14.3062Z" fill="#A2A1FF" stroke="#A2A1FF" stroke-width="38.4308" stroke-miterlimit="10"/>
<path d="M302.642 38.4842H314.293L314.948 47.5239C317.119 44.2897 320.078 41.6624 323.547 39.8903C327.015 38.1181 330.878 37.2596 334.771 37.3959C347.187 37.3959 355.897 44.4754 355.897 58.8511V100.129H343.266V60.3762C343.266 53.0783 339.019 48.6139 330.847 48.6139C328.836 48.5129 326.825 48.8256 324.939 49.5327C323.053 50.2398 321.332 51.3262 319.883 52.7247C318.434 54.1233 317.287 55.8043 316.513 57.6638C315.739 59.5233 315.355 61.5217 315.385 63.5356V100.129H302.642V38.4842Z" fill="#A2A1FF" stroke="#A2A1FF" stroke-width="38.4308" stroke-miterlimit="10"/>
<path d="M370.371 102.198L382.026 99.6941C382.786 107.318 388.668 109.931 395.966 109.931C405.441 109.931 411.647 105.793 411.647 95.7722V84.9908C407.945 91.417 401.302 94.2471 392.916 94.2471C377.341 94.2471 367.539 83.0307 367.539 66.0398C367.539 49.1582 377.123 37.3958 392.37 37.3958C396.293 37.1604 400.201 38.0502 403.636 39.9604C407.07 41.8707 409.887 44.722 411.756 48.1789L412.411 38.4842H424.172V95.4464C424.172 109.713 415.134 119.298 395.202 119.298C380.61 119.298 371.568 112.545 370.371 102.198ZM411.647 67.8907V64.0797C411.787 61.9117 411.469 59.7385 410.713 57.7017C409.957 55.6649 408.78 53.8102 407.26 52.2585C405.739 50.7069 403.909 49.493 401.888 48.696C399.866 47.899 397.7 47.5368 395.53 47.633C385.837 47.633 380.501 54.8217 380.501 66.149C380.501 77.2579 385.837 84.8816 395.857 84.8816C405.332 84.8816 411.647 77.6929 411.647 67.8907Z" fill="#A2A1FF" stroke="#A2A1FF" stroke-width="38.4308" stroke-miterlimit="10"/>
<path d="M460.742 69.4157C460.742 50.0297 471.742 37.3958 490.258 37.3958C508.119 37.3958 519.664 49.2674 518.03 72.5752H473.376C474.355 85.1001 480.565 90.9803 490.8 90.9803C499.405 90.9803 504.959 86.9509 506.266 79.9805L517.375 82.7032C515.089 93.8121 504.959 101.217 490.691 101.217C472.83 101.217 460.742 89.5642 460.742 69.4157ZM473.595 63.4262H505.069C505.287 53.624 499.733 47.1979 490.04 47.1979C481.435 47.1978 475.12 52.2081 473.595 63.4262Z" fill="#A2A1FF" stroke="#A2A1FF" stroke-width="38.4308" stroke-miterlimit="10"/>
<path d="M521.61 38.4843H535.332L545.244 66.8025C548.294 75.4054 550.034 80.7432 552.538 89.0203C554.718 81.3966 557.223 73.7729 559.618 66.8025L569.638 38.4843H582.709L559.403 100.129H545.353L521.61 38.4843Z" fill="#A2A1FF" stroke="#A2A1FF" stroke-width="38.4308" stroke-miterlimit="10"/>
<path d="M587.486 69.4157C587.486 50.0297 598.486 37.3958 617.002 37.3958C634.862 37.3958 646.408 49.2674 644.774 72.5752H600.12C601.099 85.1001 607.309 90.9803 617.544 90.9803C626.149 90.9803 631.703 86.9509 633.01 79.9805L644.119 82.7032C641.833 93.8121 631.703 101.217 617.435 101.217C599.574 101.217 587.486 89.5642 587.486 69.4157ZM600.338 63.4262H631.812C632.031 53.624 626.476 47.1979 616.783 47.1979C608.179 47.1978 601.863 52.2081 600.338 63.4262Z" fill="#A2A1FF" stroke="#A2A1FF" stroke-width="38.4308" stroke-miterlimit="10"/>
<path d="M655.319 38.4842H666.97L667.625 47.5239C669.796 44.2897 672.755 41.6624 676.224 39.8903C679.692 38.1181 683.556 37.2596 687.448 37.3959C699.864 37.3959 708.574 44.4754 708.574 58.8511V100.129H695.944V60.3762C695.944 53.0783 691.696 48.6139 683.525 48.6139C681.513 48.5129 679.502 48.8256 677.616 49.5327C675.731 50.2398 674.01 51.3262 672.561 52.7247C671.111 54.1233 669.964 55.8043 669.191 57.6638C668.417 59.5233 668.033 61.5217 668.062 63.5356V100.129H655.319L655.319 38.4842Z" fill="#A2A1FF" stroke="#A2A1FF" stroke-width="38.4308" stroke-miterlimit="10"/>
<path d="M726.641 89.5644V47.9607L718.473 48.0698V38.4843L726.641 38.5935V21.6043L739.056 20.5143V38.5935L749.077 38.4844V48.0699L739.056 47.9607V84.6634C739.056 89.1295 740.039 90.3271 744.068 90.3271C745.754 90.3643 747.438 90.1813 749.077 89.7829V99.8017C746.042 100.509 742.937 100.875 739.82 100.892C730.997 100.892 726.641 96.9716 726.641 89.5644Z" fill="#A2A1FF" stroke="#A2A1FF" stroke-width="38.4308" stroke-miterlimit="10"/>
<path d="M54.6798 101.373C31.3783 101.373 17.9853 85.5847 17.9853 60.5409C17.9853 34.735 32.4671 19.9265 55.1154 19.9265C74.8237 19.9265 87.3456 30.8151 89.5233 47.148L76.457 48.999C74.3881 37.3483 66.3306 31.5773 55.0065 31.5773C39.3269 31.5773 31.596 42.7926 31.596 60.5409C31.596 80.0315 40.6336 89.6134 54.8976 89.6134C67.5283 89.6134 74.9326 82.7536 76.7836 72.0828L89.741 73.4983C87.4544 91.3556 73.6259 101.373 54.6798 101.373ZM128.099 101.373C109.916 101.373 98.2647 88.6335 98.2647 69.5785C98.2647 50.1968 110.024 37.566 128.099 37.566C146.174 37.566 157.825 50.1968 157.825 69.4696C157.825 88.7423 146.174 101.373 128.099 101.373ZM128.099 90.7023C138.77 90.7023 145.086 82.7536 145.086 69.3607C145.086 55.9677 138.77 48.2368 128.099 48.2368C117.32 48.2368 111.004 56.1855 111.004 69.4696C111.004 82.8625 117.32 90.7023 128.099 90.7023ZM169.476 100.284V38.6549H180.909L181.78 48.128C185.918 40.8326 192.778 37.566 200.073 37.566C208.457 37.566 215.426 41.7037 218.584 49.7612C222.286 41.9215 229.908 37.566 238.401 37.566C251.685 37.566 258.98 45.8414 258.98 58.581V100.284H246.241V61.0854C246.241 53.3545 242.43 48.7813 235.243 48.7813C226.532 48.7813 220.543 54.77 220.543 64.7875V100.284H207.804V61.8476C207.804 54.1167 204.428 48.7813 196.697 48.7813C187.987 48.7813 182.216 55.4233 182.216 64.3519V100.284H169.476ZM277.415 28.8552V14.4823H289.392V28.8552H277.415ZM276.979 100.284V38.6549H289.719V100.284H276.979ZM307.71 100.284V38.6549H319.361L320.014 47.6924C325.132 40.7237 331.447 37.566 339.831 37.566C352.244 37.566 360.955 44.6436 360.955 59.0165V100.284H348.324V60.5409C348.324 53.2456 344.078 48.7813 335.911 48.7813C327.527 48.7813 320.558 54.4433 320.45 63.6986V100.284H307.71ZM400.263 119.448C385.672 119.448 376.635 112.697 375.437 102.353L387.088 99.8487C387.85 107.471 393.73 110.084 401.025 110.084C410.498 110.084 416.704 105.946 416.704 95.9288V85.1491C413.002 91.5734 406.36 94.4044 397.976 94.4044C382.405 94.4044 372.606 83.1892 372.606 66.203C372.606 49.3257 382.188 37.566 397.432 37.566C406.251 37.566 413.547 41.5948 416.813 48.3457L417.467 38.6549H429.226V95.6022C429.226 109.866 420.189 119.448 400.263 119.448ZM400.916 85.0402C410.389 85.0402 416.704 77.8538 416.704 68.0541V64.243C416.704 54.5522 410.28 47.8013 400.589 47.8013C390.899 47.8013 385.563 54.9878 385.563 66.3119C385.563 77.4182 390.899 85.0402 400.916 85.0402ZM495.804 101.373C477.947 101.373 465.86 89.7223 465.86 69.5785C465.86 50.1968 476.858 37.566 495.369 37.566C513.226 37.566 524.768 49.4346 523.134 72.7361H478.491C479.471 85.258 485.678 91.1378 495.913 91.1378C504.515 91.1378 510.068 87.1091 511.375 80.1404L522.481 82.8625C520.194 93.9689 510.068 101.373 495.804 101.373ZM495.151 47.3658C486.549 47.3658 480.233 52.3745 478.709 63.5897H510.177C510.395 53.79 504.842 47.3658 495.151 47.3658ZM549.587 100.284L525.85 38.6549H539.569L549.478 66.9652C552.527 75.5672 554.269 80.9026 556.773 89.1779C558.951 81.5559 561.455 73.9339 563.851 66.9652L573.868 38.6549H586.935L563.633 100.284H549.587ZM620.427 101.373C602.57 101.373 590.484 89.7223 590.484 69.5785C590.484 50.1968 601.481 37.566 619.992 37.566C637.849 37.566 649.391 49.4346 647.758 72.7361H603.114C604.094 85.258 610.301 91.1378 620.536 91.1378C629.138 91.1378 634.691 87.1091 635.998 80.1404L647.104 82.8625C644.818 93.9689 634.691 101.373 620.427 101.373ZM619.774 47.3658C611.172 47.3658 604.857 52.3745 603.332 63.5897H634.8C635.018 53.79 629.465 47.3658 619.774 47.3658ZM658.611 100.284V38.6549H670.262L670.915 47.6924C676.033 40.7237 682.348 37.566 690.733 37.566C703.145 37.566 711.856 44.6436 711.856 59.0165V100.284H699.226V60.5409C699.226 53.2456 694.979 48.7813 686.813 48.7813C678.428 48.7813 671.46 54.4433 671.351 63.6986V100.284H658.611ZM741.618 101.046C732.798 101.046 728.443 97.1266 728.443 89.7223V48.128L720.276 48.2368V38.6549L728.443 38.7638V21.7776L740.856 20.6887V38.7638L750.873 38.6549V48.2368L740.856 48.128V84.8225C740.856 89.2868 741.836 90.4845 745.864 90.4845C748.042 90.4845 749.675 90.2667 750.873 89.9401V99.9576C747.607 100.72 744.34 101.046 741.618 101.046Z" fill="#0B1817"/>
</g>
<mask id="path-13-outside-1_70_2" maskUnits="userSpaceOnUse" x="225.779" y="141.381" width="339" height="87" fill="black">
<rect fill="white" x="225.779" y="141.381" width="339" height="87"/>
<path d="M266.192 183.056C265.937 177.445 262.047 174.512 256.245 174.512C250.635 174.512 247.638 177.062 247.638 180.76C247.638 185.606 252.293 186.945 259.752 188.539C267.531 190.133 274.544 193.066 274.544 202.119C274.544 210.471 268.041 216.018 256.628 216.018C245.407 216.018 238.648 209.898 238.457 200.844L245.853 199.888C246.108 206.391 250.252 209.77 256.756 209.77C262.621 209.77 266.51 207.73 266.51 202.629C266.51 197.337 261.665 196.253 256.118 195.042C245.725 192.81 239.796 189.559 239.796 181.334C239.796 173.619 246.363 168.264 256.245 168.264C267.021 168.264 273.333 173.747 273.715 182.163L266.192 183.056ZM282.413 215.381V168.901H315.694V175.405H290V188.475H313.016V194.787H290V208.814H317.607V215.381H282.413ZM342.066 216.018C328.422 216.018 320.579 206.773 320.579 192.109C320.579 176.999 329.059 168.328 342.321 168.328C353.861 168.328 361.193 174.703 362.468 184.267L354.817 185.351C353.606 178.529 348.888 175.15 342.257 175.15C333.076 175.15 328.549 181.717 328.549 192.109C328.549 203.522 333.841 209.132 342.193 209.132C349.589 209.132 353.925 205.116 355.009 198.867L362.596 199.696C361.257 210.153 353.16 216.018 342.066 216.018ZM380.289 215.381V175.468H364.478V168.901H403.497V175.468H387.877V215.381H380.289ZM425.687 216.018C412.298 216.018 404.137 207.22 404.137 192.173C404.137 177.317 412.043 168.328 425.687 168.328C439.14 168.328 447.364 177.062 447.364 192.109C447.364 206.965 439.395 216.018 425.687 216.018ZM425.687 209.132C434.23 209.132 439.331 203.458 439.331 192.173C439.331 181.525 434.677 175.15 425.687 175.15C417.207 175.15 412.106 180.824 412.106 192.109C412.106 202.757 416.697 209.132 425.687 209.132ZM455.131 215.381V168.901H477.765C487.201 168.901 492.684 173.811 492.684 181.398C492.684 186.817 489.751 191.025 484.842 192.555C491.026 193.831 491.855 196.636 491.855 201.226V212.193C491.855 213.213 491.983 214.361 492.939 214.679V215.381H485.161C484.587 214.552 484.268 213.468 484.268 211.3V202.374C484.268 198.039 483.248 195.935 478.785 195.935H462.718V215.381H455.131ZM462.718 189.559H476.681C481.845 189.559 484.714 187.009 484.714 182.418C484.714 177.827 481.782 175.468 476.745 175.468H462.718V189.559ZM537.745 215.381V205.626H514.537V199.505L537.681 168.901H545.204V199.314H552.345V205.626H545.204V215.381H537.745ZM522.443 199.314H537.745V178.656L522.443 199.314Z"/>
</mask>
<path d="M266.192 183.056C265.937 177.445 262.047 174.512 256.245 174.512C250.635 174.512 247.638 177.062 247.638 180.76C247.638 185.606 252.293 186.945 259.752 188.539C267.531 190.133 274.544 193.066 274.544 202.119C274.544 210.471 268.041 216.018 256.628 216.018C245.407 216.018 238.648 209.898 238.457 200.844L245.853 199.888C246.108 206.391 250.252 209.77 256.756 209.77C262.621 209.77 266.51 207.73 266.51 202.629C266.51 197.337 261.665 196.253 256.118 195.042C245.725 192.81 239.796 189.559 239.796 181.334C239.796 173.619 246.363 168.264 256.245 168.264C267.021 168.264 273.333 173.747 273.715 182.163L266.192 183.056ZM282.413 215.381V168.901H315.694V175.405H290V188.475H313.016V194.787H290V208.814H317.607V215.381H282.413ZM342.066 216.018C328.422 216.018 320.579 206.773 320.579 192.109C320.579 176.999 329.059 168.328 342.321 168.328C353.861 168.328 361.193 174.703 362.468 184.267L354.817 185.351C353.606 178.529 348.888 175.15 342.257 175.15C333.076 175.15 328.549 181.717 328.549 192.109C328.549 203.522 333.841 209.132 342.193 209.132C349.589 209.132 353.925 205.116 355.009 198.867L362.596 199.696C361.257 210.153 353.16 216.018 342.066 216.018ZM380.289 215.381V175.468H364.478V168.901H403.497V175.468H387.877V215.381H380.289ZM425.687 216.018C412.298 216.018 404.137 207.22 404.137 192.173C404.137 177.317 412.043 168.328 425.687 168.328C439.14 168.328 447.364 177.062 447.364 192.109C447.364 206.965 439.395 216.018 425.687 216.018ZM425.687 209.132C434.23 209.132 439.331 203.458 439.331 192.173C439.331 181.525 434.677 175.15 425.687 175.15C417.207 175.15 412.106 180.824 412.106 192.109C412.106 202.757 416.697 209.132 425.687 209.132ZM455.131 215.381V168.901H477.765C487.201 168.901 492.684 173.811 492.684 181.398C492.684 186.817 489.751 191.025 484.842 192.555C491.026 193.831 491.855 196.636 491.855 201.226V212.193C491.855 213.213 491.983 214.361 492.939 214.679V215.381H485.161C484.587 214.552 484.268 213.468 484.268 211.3V202.374C484.268 198.039 483.248 195.935 478.785 195.935H462.718V215.381H455.131ZM462.718 189.559H476.681C481.845 189.559 484.714 187.009 484.714 182.418C484.714 177.827 481.782 175.468 476.745 175.468H462.718V189.559ZM537.745 215.381V205.626H514.537V199.505L537.681 168.901H545.204V199.314H552.345V205.626H545.204V215.381H537.745ZM522.443 199.314H537.745V178.656L522.443 199.314Z" fill="#A2A1FF"/>
<path d="M266.192 183.056L254.208 183.6L254.794 196.488L267.605 194.968L266.192 183.056ZM259.752 188.539L257.245 200.27L257.295 200.281L257.344 200.291L259.752 188.539ZM238.457 200.844L236.919 188.947L226.236 190.328L226.464 201.097L238.457 200.844ZM245.853 199.888L257.84 199.417L257.326 186.308L244.315 187.99L245.853 199.888ZM256.118 195.042L258.678 183.322L258.657 183.317L258.636 183.313L256.118 195.042ZM273.715 182.163L275.128 194.076L286.206 192.761L285.699 181.618L273.715 182.163ZM266.192 183.056L278.176 182.511C277.919 176.86 275.671 171.356 270.958 167.447C266.476 163.729 261.051 162.516 256.245 162.516V174.512V186.508C257.242 186.508 256.662 186.761 255.64 185.913C255.12 185.481 254.709 184.935 254.454 184.381C254.211 183.854 254.205 183.536 254.208 183.6L266.192 183.056ZM256.245 174.512V162.516C251.801 162.516 246.79 163.506 242.59 166.69C238.021 170.154 235.642 175.32 235.642 180.76H247.638H259.635C259.635 181.481 259.481 182.443 258.985 183.464C258.485 184.495 257.782 185.281 257.086 185.809C255.787 186.794 255.079 186.508 256.245 186.508V174.512ZM247.638 180.76H235.642C235.642 184.012 236.463 187.385 238.491 190.436C240.437 193.364 242.977 195.217 245.167 196.408C249.066 198.528 253.889 199.553 257.245 200.27L259.752 188.539L262.259 176.807C260.423 176.415 259.077 176.104 258.015 175.8C256.921 175.486 256.58 175.304 256.628 175.33C256.723 175.381 257.633 175.892 258.473 177.155C259.395 178.543 259.635 179.931 259.635 180.76H247.638ZM259.752 188.539L257.344 200.291C258.966 200.623 260.234 200.964 261.224 201.326C262.219 201.69 262.675 201.983 262.823 202.095C262.907 202.159 262.729 202.034 262.576 201.726C262.427 201.425 262.548 201.442 262.548 202.119H274.544H286.54C286.54 193.862 283.048 187.316 277.307 182.968C272.341 179.207 266.412 177.658 262.16 176.787L259.752 188.539ZM274.544 202.119H262.548C262.548 202.631 262.454 202.795 262.472 202.756C262.496 202.704 262.517 202.717 262.393 202.817C262.085 203.061 260.537 204.022 256.628 204.022V216.018V228.015C264.131 228.015 271.541 226.202 277.339 221.585C283.439 216.727 286.54 209.699 286.54 202.119H274.544ZM256.628 216.018V204.022C253.135 204.022 251.64 203.082 251.198 202.705C250.912 202.46 250.481 202.011 250.451 200.591L238.457 200.844L226.464 201.097C226.625 208.731 229.668 215.868 235.615 220.948C241.405 225.894 248.899 228.015 256.628 228.015V216.018ZM238.457 200.844L239.996 212.741L247.391 211.785L245.853 199.888L244.315 187.99L236.919 188.947L238.457 200.844ZM245.853 199.888L233.866 200.358C234.093 206.158 236.189 212.001 241.029 216.267C245.715 220.397 251.521 221.766 256.756 221.766V209.77V197.774C255.486 197.774 255.969 197.453 256.893 198.268C257.342 198.663 257.632 199.114 257.781 199.463C257.916 199.777 257.856 199.819 257.84 199.417L245.853 199.888ZM256.756 209.77V221.766C260.726 221.766 265.963 221.138 270.53 218.065C275.898 214.453 278.507 208.73 278.507 202.629H266.51H254.514C254.514 202.367 254.571 201.549 255.091 200.513C255.631 199.437 256.413 198.646 257.135 198.16C257.785 197.722 258.205 197.649 258.09 197.675C257.978 197.7 257.562 197.774 256.756 197.774V209.77ZM266.51 202.629H278.507C278.507 199.389 277.736 196.055 275.837 193.019C273.981 190.052 271.521 188.127 269.327 186.879C265.501 184.702 260.884 183.804 258.678 183.322L256.118 195.042L253.558 206.762C255.017 207.081 255.973 207.296 256.769 207.524C257.569 207.754 257.679 207.856 257.461 207.732C257.172 207.567 256.271 206.981 255.496 205.744C254.679 204.437 254.514 203.223 254.514 202.629H266.51ZM256.118 195.042L258.636 183.313C256.35 182.822 254.635 182.342 253.35 181.866C252.055 181.386 251.495 181.019 251.332 180.895C251.248 180.831 251.495 181.013 251.7 181.441C251.891 181.84 251.792 181.926 251.792 181.334H239.796H227.8C227.8 188.969 230.858 195.457 236.788 199.976C241.801 203.797 248.115 205.593 253.599 206.771L256.118 195.042ZM239.796 181.334H251.792C251.792 181.14 251.825 181.159 251.769 181.274C251.716 181.384 251.683 181.375 251.812 181.271C252.104 181.037 253.379 180.26 256.245 180.26V168.264V156.268C249.23 156.268 242.28 158.168 236.818 162.541C231.151 167.077 227.8 173.765 227.8 181.334H239.796ZM256.245 168.264V180.26C259.691 180.26 261.026 181.134 261.299 181.356C261.431 181.464 261.48 181.539 261.522 181.627C261.572 181.731 261.701 182.051 261.731 182.708L273.715 182.163L285.699 181.618C285.368 174.34 282.331 167.546 276.456 162.758C270.784 158.135 263.575 156.268 256.245 156.268V168.264ZM273.715 182.163L272.302 170.25L264.778 171.143L266.192 183.056L267.605 194.968L275.128 194.076L273.715 182.163ZM282.413 215.381H270.416V227.377H282.413V215.381ZM282.413 168.901V156.905H270.416V168.901H282.413ZM315.694 168.901H327.69V156.905H315.694V168.901ZM315.694 175.405V187.401H327.69V175.405H315.694ZM290 175.405V163.408H278.003V175.405H290ZM290 188.475H278.003V200.471H290V188.475ZM313.016 188.475H325.012V176.479H313.016V188.475ZM313.016 194.787V206.783H325.012V194.787H313.016ZM290 194.787V182.791H278.003V194.787H290ZM290 208.814H278.003V220.81H290V208.814ZM317.607 208.814H329.603V196.817H317.607V208.814ZM317.607 215.381V227.377H329.603V215.381H317.607ZM282.413 215.381H294.409V168.901H282.413H270.416V215.381H282.413ZM282.413 168.901V180.898H315.694V168.901V156.905H282.413V168.901ZM315.694 168.901H303.698V175.405H315.694H327.69V168.901H315.694ZM315.694 175.405V163.408H290V175.405V187.401H315.694V175.405ZM290 175.405H278.003V188.475H290H301.996V175.405H290ZM290 188.475V200.471H313.016V188.475V176.479H290V188.475ZM313.016 188.475H301.02V194.787H313.016H325.012V188.475H313.016ZM313.016 194.787V182.791H290V194.787V206.783H313.016V194.787ZM290 194.787H278.003V208.814H290H301.996V194.787H290ZM290 208.814V220.81H317.607V208.814V196.817H290V208.814ZM317.607 208.814H305.61V215.381H317.607H329.603V208.814H317.607ZM317.607 215.381V203.384H282.413V215.381V227.377H317.607V215.381ZM362.468 184.267L364.151 196.145L375.932 194.476L374.359 182.681L362.468 184.267ZM354.817 185.351L343.006 187.448L345.031 198.853L356.5 197.229L354.817 185.351ZM355.009 198.867L356.311 186.942L345.114 185.719L343.189 196.817L355.009 198.867ZM362.596 199.696L374.495 201.22L376.047 189.098L363.898 187.771L362.596 199.696ZM342.066 216.018V204.022C338.105 204.022 336.225 202.783 335.191 201.614C333.984 200.25 332.576 197.404 332.576 192.109H320.579H308.583C308.583 201.478 311.096 210.587 317.221 217.511C323.519 224.631 332.382 228.015 342.066 228.015V216.018ZM320.579 192.109H332.576C332.576 186.748 334.055 184.017 335.256 182.727C336.367 181.534 338.388 180.324 342.321 180.324V168.328V156.331C332.992 156.331 324.142 159.456 317.698 166.376C311.344 173.2 308.583 182.359 308.583 192.109H320.579ZM342.321 168.328V180.324C345.881 180.324 347.772 181.285 348.681 182.023C349.527 182.71 350.306 183.82 350.577 185.852L362.468 184.267L374.359 182.681C373.355 175.15 369.83 168.29 363.806 163.398C357.846 158.558 350.301 156.331 342.321 156.331V168.328ZM362.468 184.267L360.785 172.389L353.135 173.473L354.817 185.351L356.5 197.229L364.151 196.145L362.468 184.267ZM354.817 185.351L366.629 183.253C365.597 177.443 362.832 172.072 357.982 168.26C353.229 164.524 347.58 163.153 342.257 163.153V175.15V187.146C342.906 187.146 343.25 187.229 343.36 187.263C343.451 187.29 343.343 187.271 343.156 187.124C343.069 187.055 342.99 186.979 342.925 186.902C342.86 186.825 342.825 186.769 342.815 186.75C342.792 186.71 342.908 186.895 343.006 187.448L354.817 185.351ZM342.257 175.15V163.153C334.507 163.153 327.346 166.102 322.478 172.383C317.979 178.189 316.553 185.411 316.553 192.109H328.549H340.545C340.545 188.415 341.383 187.157 341.442 187.081C341.447 187.075 341.418 187.112 341.352 187.165C341.285 187.218 341.226 187.25 341.197 187.263C341.125 187.296 341.398 187.146 342.257 187.146V175.15ZM328.549 192.109H316.553C316.553 199.479 318.243 206.867 323.038 212.598C328.098 218.646 335.165 221.129 342.193 221.129V209.132V197.136C341.444 197.136 341.17 197.012 341.198 197.023C341.269 197.053 341.386 197.139 341.44 197.203C341.501 197.275 340.545 196.152 340.545 192.109H328.549ZM342.193 209.132V221.129C348.094 221.129 353.924 219.493 358.644 215.562C363.366 211.63 365.894 206.304 366.828 200.918L355.009 198.867L343.189 196.817C343.11 197.269 343.015 197.442 343.021 197.429C343.037 197.4 343.122 197.265 343.291 197.124C343.461 196.983 343.56 196.964 343.465 196.995C343.352 197.032 342.961 197.136 342.193 197.136V209.132ZM355.009 198.867L353.706 210.793L361.293 211.622L362.596 199.696L363.898 187.771L356.311 186.942L355.009 198.867ZM362.596 199.696L350.697 198.173C350.402 200.476 349.534 201.604 348.64 202.297C347.594 203.107 345.552 204.022 342.066 204.022V216.018V228.015C349.674 228.015 357.227 225.996 363.338 221.26C369.601 216.406 373.451 209.373 374.495 201.22L362.596 199.696ZM380.289 215.381H368.293V227.377H380.289V215.381ZM380.289 175.468H392.286V163.472H380.289V175.468ZM364.478 175.468H352.481V187.465H364.478V175.468ZM364.478 168.901V156.905H352.481V168.901H364.478ZM403.497 168.901H415.493V156.905H403.497V168.901ZM403.497 175.468V187.465H415.493V175.468H403.497ZM387.877 175.468V163.472H375.88V175.468H387.877ZM387.877 215.381V227.377H399.873V215.381H387.877ZM380.289 215.381H392.286V175.468H380.289H368.293V215.381H380.289ZM380.289 175.468V163.472H364.478V175.468V187.465H380.289V175.468ZM364.478 175.468H376.474V168.901H364.478H352.481V175.468H364.478ZM364.478 168.901V180.898H403.497V168.901V156.905H364.478V168.901ZM403.497 168.901H391.501V175.468H403.497H415.493V168.901H403.497ZM403.497 175.468V163.472H387.877V175.468V187.465H403.497V175.468ZM387.877 175.468H375.88V215.381H387.877H399.873V175.468H387.877ZM387.877 215.381V203.384H380.289V215.381V227.377H387.877V215.381ZM425.687 216.018V204.022C421.725 204.022 419.803 202.806 418.763 201.663C417.592 200.377 416.133 197.608 416.133 192.173H404.137H392.14C392.14 201.784 394.762 210.939 401.019 217.813C407.407 224.831 416.259 228.015 425.687 228.015V216.018ZM404.137 192.173H416.133C416.133 186.773 417.561 183.988 418.725 182.69C419.73 181.569 421.621 180.324 425.687 180.324V168.328V156.331C416.108 156.331 407.224 159.581 400.866 166.669C394.666 173.58 392.14 182.718 392.14 192.173H404.137ZM425.687 168.328V180.324C429.726 180.324 431.69 181.554 432.74 182.696C433.907 183.965 435.368 186.698 435.368 192.109H447.364H459.361C459.361 182.474 456.709 173.315 450.401 166.456C443.975 159.468 435.101 156.331 425.687 156.331V168.328ZM447.364 192.109H435.368C435.368 197.487 433.936 200.29 432.747 201.612C431.711 202.764 429.778 204.022 425.687 204.022V216.018V228.015C435.304 228.015 444.209 224.746 450.585 217.657C456.808 210.739 459.361 201.587 459.361 192.109H447.364ZM425.687 209.132V221.129C432.786 221.129 439.893 218.645 444.952 212.536C449.716 206.784 451.327 199.409 451.327 192.173H439.331H427.335C427.335 196.222 426.395 197.327 426.473 197.233C426.544 197.148 426.681 197.05 426.762 197.016C426.795 197.002 426.501 197.136 425.687 197.136V209.132ZM439.331 192.173H451.327C451.327 185.337 449.865 178.078 445.33 172.279C440.437 166.022 433.298 163.153 425.687 163.153V175.15V187.146C426.512 187.146 426.771 187.289 426.695 187.255C426.663 187.24 426.6 187.206 426.53 187.151C426.461 187.097 426.428 187.056 426.43 187.058C426.47 187.109 427.335 188.362 427.335 192.173H439.331ZM425.687 175.15V163.153C418.592 163.153 411.503 165.656 406.465 171.761C401.722 177.508 400.11 184.872 400.11 192.109H412.106H424.103C424.103 188.061 425.042 186.945 424.969 187.034C424.9 187.116 424.762 187.218 424.67 187.257C424.625 187.277 424.899 187.146 425.687 187.146V175.15ZM412.106 192.109H400.11C400.11 198.912 401.542 206.166 406.051 211.971C410.929 218.253 418.068 221.129 425.687 221.129V209.132V197.136C424.861 197.136 424.613 196.993 424.703 197.034C424.742 197.051 424.812 197.09 424.888 197.15C424.923 197.178 424.951 197.204 424.972 197.225C424.993 197.246 425.002 197.257 425 197.256C424.966 197.211 424.103 195.953 424.103 192.109H412.106ZM455.131 215.381H443.135V227.377H455.131V215.381ZM455.131 168.901V156.905H443.135V168.901H455.131ZM484.842 192.555L481.272 181.103L436.927 194.925L482.419 204.305L484.842 192.555ZM492.939 214.679H504.935V206.033L496.733 203.299L492.939 214.679ZM492.939 215.381V227.377H504.935V215.381H492.939ZM485.161 215.381L475.297 222.209L478.875 227.377H485.161V215.381ZM462.718 195.935V183.938H450.722V195.935H462.718ZM462.718 215.381V227.377H474.714V215.381H462.718ZM462.718 189.559H450.722V201.555H462.718V189.559ZM462.718 175.468V163.472H450.722V175.468H462.718ZM455.131 215.381H467.127V168.901H455.131H443.135V215.381H455.131ZM455.131 168.901V180.898H477.765V168.901V156.905H455.131V168.901ZM477.765 168.901V180.898C480.511 180.898 481.186 181.609 480.977 181.431C480.867 181.337 480.742 181.174 480.672 181.012C480.611 180.872 480.688 180.955 480.688 181.398H492.684H504.68C504.68 174.517 502.078 167.895 496.549 163.178C491.24 158.648 484.455 156.905 477.765 156.905V168.901ZM492.684 181.398H480.688C480.688 181.534 480.679 181.632 480.67 181.695C480.661 181.758 480.652 181.787 480.652 181.788C480.652 181.788 480.654 181.781 480.659 181.769C480.663 181.757 480.671 181.739 480.681 181.717C480.703 181.672 480.736 181.614 480.782 181.547C480.881 181.406 481.006 181.281 481.133 181.19C481.259 181.1 481.324 181.086 481.272 181.103L484.842 192.555L488.412 204.008C498.758 200.783 504.68 191.609 504.68 181.398H492.684ZM484.842 192.555L482.419 204.305C483.229 204.472 483.23 204.566 482.826 204.347C482.313 204.069 481.478 203.462 480.763 202.416C480.083 201.421 479.884 200.57 479.839 200.328C479.81 200.175 479.859 200.348 479.859 201.226H491.855H503.852C503.852 198.775 503.792 193.591 500.572 188.88C497.059 183.738 491.71 181.723 487.264 180.806L484.842 192.555ZM491.855 201.226H479.859V212.193H491.855H503.852V201.226H491.855ZM491.855 212.193H479.859C479.859 212.924 479.861 215.101 480.658 217.493C481.583 220.269 483.989 224.341 489.146 226.06L492.939 214.679L496.733 203.299C498.584 203.916 500.196 205.022 501.418 206.427C502.564 207.745 503.135 209.052 503.419 209.906C503.914 211.388 503.852 212.481 503.852 212.193H491.855ZM492.939 214.679H480.943V215.381H492.939H504.935V214.679H492.939ZM492.939 215.381V203.384H485.161V215.381V227.377H492.939V215.381ZM485.161 215.381L495.024 208.552C495.294 208.942 495.55 209.388 495.765 209.879C495.976 210.36 496.103 210.783 496.179 211.103C496.313 211.678 496.264 211.866 496.264 211.3H484.268H472.272C472.272 214.556 472.725 218.493 475.297 222.209L485.161 215.381ZM484.268 211.3H496.264V202.374H484.268H472.272V211.3H484.268ZM484.268 202.374H496.264C496.264 200.035 496.175 194.768 492.746 190.263C488.618 184.84 482.609 183.938 478.785 183.938V195.935V207.931C479.051 207.931 478.435 207.975 477.398 207.595C476.173 207.147 474.761 206.248 473.655 204.795C472.649 203.473 472.359 202.299 472.287 201.947C472.222 201.632 472.272 201.673 472.272 202.374H484.268ZM478.785 195.935V183.938H462.718V195.935V207.931H478.785V195.935ZM462.718 195.935H450.722V215.381H462.718H474.714V195.935H462.718ZM462.718 215.381V203.384H455.131V215.381V227.377H462.718V215.381ZM462.718 189.559V201.555H476.681V189.559V177.563H462.718V189.559ZM476.681 189.559V201.555C481.082 201.555 486.333 200.473 490.604 196.676C495.096 192.683 496.711 187.299 496.711 182.418H484.714H472.718C472.718 182.328 472.732 181.812 473.029 181.061C473.344 180.264 473.889 179.433 474.664 178.744C476.21 177.369 477.444 177.563 476.681 177.563V189.559ZM484.714 182.418H496.711C496.711 177.436 495.009 172.027 490.408 168.098C486.118 164.435 480.937 163.472 476.745 163.472V175.468V187.465C477.589 187.465 476.393 187.681 474.829 186.345C474.02 185.655 473.423 184.793 473.07 183.928C472.737 183.112 472.718 182.537 472.718 182.418H484.714ZM476.745 175.468V163.472H462.718V175.468V187.465H476.745V175.468ZM462.718 175.468H450.722V189.559H462.718H474.714V175.468H462.718ZM537.745 215.381H525.749V227.377H537.745V215.381ZM537.745 205.626H549.741V193.629H537.745V205.626ZM514.537 205.626H502.541V217.622H514.537V205.626ZM514.537 199.505L504.969 192.269L502.541 195.48V199.505H514.537ZM537.681 168.901V156.905H531.713L528.113 161.665L537.681 168.901ZM545.204 168.901H557.201V156.905H545.204V168.901ZM545.204 199.314H533.208V211.31H545.204V199.314ZM552.345 199.314H564.342V187.317H552.345V199.314ZM552.345 205.626V217.622H564.342V205.626H552.345ZM545.204 205.626V193.629H533.208V205.626H545.204ZM545.204 215.381V227.377H557.201V215.381H545.204ZM522.443 199.314L512.803 192.173L498.628 211.31H522.443V199.314ZM537.745 199.314V211.31H549.741V199.314H537.745ZM537.745 178.656H549.741V142.307L528.105 171.516L537.745 178.656ZM537.745 215.381H549.741V205.626H537.745H525.749V215.381H537.745ZM537.745 205.626V193.629H514.537V205.626V217.622H537.745V205.626ZM514.537 205.626H526.533V199.505H514.537H502.541V205.626H514.537ZM514.537 199.505L524.105 206.741L547.249 176.137L537.681 168.901L528.113 161.665L504.969 192.269L514.537 199.505ZM537.681 168.901V180.898H545.204V168.901V156.905H537.681V168.901ZM545.204 168.901H533.208V199.314H545.204H557.201V168.901H545.204ZM545.204 199.314V211.31H552.345V199.314V187.317H545.204V199.314ZM552.345 199.314H540.349V205.626H552.345H564.342V199.314H552.345ZM552.345 205.626V193.629H545.204V205.626V217.622H552.345V205.626ZM545.204 205.626H533.208V215.381H545.204H557.201V205.626H545.204ZM545.204 215.381V203.384H537.745V215.381V227.377H545.204V215.381ZM522.443 199.314V211.31H537.745V199.314V187.317H522.443V199.314ZM537.745 199.314H549.741V178.656H537.745H525.749V199.314H537.745ZM537.745 178.656L528.105 171.516L512.803 192.173L522.443 199.314L532.083 206.454L547.385 185.797L537.745 178.656Z" fill="#A2A1FF" mask="url(#path-13-outside-1_70_2)"/>
<path d="M266.192 183.761C265.937 178.151 262.047 175.218 256.245 175.218C250.635 175.218 247.638 177.768 247.638 181.466C247.638 186.311 252.293 187.65 259.752 189.244C267.531 190.838 274.544 193.771 274.544 202.825C274.544 211.177 268.041 216.724 256.628 216.724C245.407 216.724 238.648 210.603 238.457 201.55L245.853 200.593C246.108 207.096 250.252 210.476 256.756 210.476C262.621 210.476 266.51 208.435 266.51 203.335C266.51 198.043 261.665 196.959 256.118 195.748C245.725 193.516 239.796 190.264 239.796 182.04C239.796 174.325 246.363 168.969 256.245 168.969C267.021 168.969 273.333 174.453 273.715 182.869L266.192 183.761ZM282.413 216.086V169.607H315.694V176.11H290V189.181H313.016V195.493H290V209.519H317.607V216.086H282.413ZM342.066 216.724C328.422 216.724 320.579 207.479 320.579 192.815C320.579 177.704 329.059 169.033 342.321 169.033C353.861 169.033 361.193 175.409 362.468 184.973L354.817 186.056C353.606 179.234 348.888 175.855 342.257 175.855C333.076 175.855 328.549 182.422 328.549 192.815C328.549 204.227 333.841 209.838 342.193 209.838C349.589 209.838 353.925 205.821 355.009 199.573L362.596 200.402C361.257 210.858 353.16 216.724 342.066 216.724ZM380.289 216.086V176.174H364.478V169.607H403.497V176.174H387.877V216.086H380.289ZM425.687 216.724C412.298 216.724 404.137 207.925 404.137 192.879C404.137 178.023 412.043 169.033 425.687 169.033C439.14 169.033 447.364 177.768 447.364 192.815C447.364 207.67 439.395 216.724 425.687 216.724ZM425.687 209.838C434.23 209.838 439.331 204.164 439.331 192.879C439.331 182.231 434.677 175.855 425.687 175.855C417.207 175.855 412.106 181.53 412.106 192.815C412.106 203.462 416.697 209.838 425.687 209.838ZM455.131 216.086V169.607H477.765C487.201 169.607 492.684 174.516 492.684 182.103C492.684 187.523 489.751 191.731 484.842 193.261C491.026 194.536 491.855 197.342 491.855 201.932V212.898C491.855 213.919 491.983 215.066 492.939 215.385V216.086H485.161C484.587 215.257 484.268 214.174 484.268 212.006V203.08C484.268 198.744 483.248 196.64 478.785 196.64H462.718V216.086H455.131ZM462.718 190.264H476.681C481.845 190.264 484.714 187.714 484.714 183.124C484.714 178.533 481.782 176.174 476.745 176.174H462.718V190.264ZM537.745 216.086V206.331H514.537V200.211L537.681 169.607H545.204V200.019H552.345V206.331H545.204V216.086H537.745ZM522.443 200.019H537.745V179.362L522.443 200.019Z" fill="#0C1818"/>
<defs>
<clipPath id="clip0_70_2">
<rect width="768.292" height="162" fill="white"/>
</clipPath>
</defs>
</svg>
