<svg width="761" height="201" viewBox="0 0 761 201" fill="none" xmlns="http://www.w3.org/2000/svg">
<path d="M23.6655 50.7305H37.9087L54.9573 118.802L73.1729 50.7305H87.1819L105.163 119.152L122.329 50.7305H136.806L112.753 135.849H97.3393L80.1772 70.347L62.6641 135.849H47.2505L23.6655 50.7305Z" fill="#A2A1FF" stroke="#A2A1FF" stroke-width="36" stroke-miterlimit="10"/>
<path d="M145.189 43.6161H158.851V78.646C161.188 75.34 164.312 72.6689 167.941 70.8746C171.57 69.0802 175.589 68.2193 179.634 68.3697C192.945 68.3697 202.283 75.9594 202.283 91.3731V135.858H188.742V93.0062C188.742 85.3012 184.188 80.3962 175.428 80.3962C173.262 80.291 171.098 80.6323 169.07 81.3988C167.042 82.1654 165.193 83.3408 163.639 84.852C162.084 86.3632 160.857 88.178 160.033 90.1836C159.21 92.1891 158.807 94.3427 158.851 96.5103V135.858H145.189V43.6161Z" fill="#A2A1FF" stroke="#A2A1FF" stroke-width="36" stroke-miterlimit="10"/>
<path d="M214.759 102.933C214.759 82.1499 227.371 68.6055 246.753 68.6055C266.135 68.6055 278.626 82.1499 278.626 102.816C278.626 123.484 266.135 137.027 246.753 137.027C227.254 137.027 214.759 123.367 214.759 102.933ZM264.965 102.699C264.965 88.3386 258.194 80.0485 246.753 80.0485C235.191 80.0485 228.42 88.571 228.42 102.816C228.42 117.178 235.191 125.585 246.753 125.585C258.194 125.585 264.965 117.061 264.965 102.699Z" fill="#A2A1FF" stroke="#A2A1FF" stroke-width="36" stroke-miterlimit="10"/>
<path d="M311.41 69.7805H325.54L338.148 122.207L350.175 69.7805H365.12L377.498 121.506L389.875 69.7805H403.533L384.853 135.868H369.44L357.647 86.3609L346.323 135.868H330.441L311.41 69.7805Z" fill="#A2A1FF" stroke="#A2A1FF" stroke-width="36" stroke-miterlimit="10"/>
<path d="M409.349 102.933C409.349 82.1499 421.141 68.6055 440.992 68.6055C460.14 68.6055 472.517 81.3325 470.765 106.32H422.893C423.943 119.748 430.6 126.052 441.573 126.052C450.798 126.052 456.753 121.732 458.153 114.259L470.063 117.178C467.612 129.088 456.753 137.027 441.456 137.027C422.308 137.027 409.349 124.534 409.349 102.933ZM423.127 96.5119H456.87C457.104 86.0032 451.149 79.114 440.757 79.114C431.533 79.114 424.762 84.4853 423.127 96.5119Z" fill="#A2A1FF" stroke="#A2A1FF" stroke-width="36" stroke-miterlimit="10"/>
<path d="M505.649 118.462C505.649 105.735 515.108 100.248 526.55 98.1451L540.562 95.5774C547.099 94.4088 548.617 91.9581 548.617 87.9876C548.617 82.6163 545.347 78.9969 535.891 78.9969C526.55 78.9969 520.595 82.7333 520.712 90.5571L507.983 89.1563C508.1 76.0782 519.311 68.6055 536.008 68.6055C553.17 68.6055 562.161 75.4948 562.161 88.8052V120.914C562.161 125.351 564.147 126.286 566.247 126.286C566.918 126.348 567.595 126.268 568.233 126.052H568.935V135.626C566.801 136.399 564.548 136.795 562.278 136.794C555.391 136.794 550.72 133.641 550.369 126.986V125.117C546.982 132.358 537.991 137.027 527.482 137.027C513.59 137.027 505.649 129.554 505.649 118.462ZM548.851 115.543V103.05C546.034 104.196 543.096 105.018 540.094 105.503L530.635 107.37C521.762 109.122 519.545 113.208 519.545 117.412C519.545 123.599 524.329 126.52 531.103 126.52C540.094 126.52 546.748 122.432 548.851 115.543Z" fill="#A2A1FF" stroke="#A2A1FF" stroke-width="36" stroke-miterlimit="10"/>
<path d="M577.678 69.7845H589.935L590.755 79.7097C592.486 75.724 595.611 72.506 599.544 70.6579C603.478 68.8099 607.949 68.4584 612.123 69.6693V82.5115H611.304C609.757 82.0169 608.139 81.7802 606.516 81.8111C604.588 81.7274 602.663 82.0279 600.852 82.6952C599.042 83.3625 597.382 84.3832 595.97 85.698C594.558 87.0127 593.421 88.5953 592.626 90.3534C591.831 92.1116 591.394 94.0104 591.34 95.9392V135.872H577.678V69.7845Z" fill="#A2A1FF" stroke="#A2A1FF" stroke-width="36" stroke-miterlimit="10"/>
<path d="M617.13 102.933C617.13 82.1499 628.922 68.6055 648.773 68.6055C667.921 68.6055 680.299 81.3325 678.547 106.32H630.674C631.724 119.748 638.381 126.052 649.354 126.052C658.579 126.052 664.534 121.732 665.935 114.259L677.844 117.178C675.394 129.088 664.534 137.027 649.237 137.027C630.089 137.027 617.13 124.534 617.13 102.933ZM630.908 96.5119H664.651C664.885 86.0032 658.93 79.114 648.539 79.114C639.314 79.114 632.543 84.4853 630.908 96.5119Z" fill="#A2A1FF" stroke="#A2A1FF" stroke-width="36" stroke-miterlimit="10"/>
<path d="M719.977 89.3755C725.113 85.1728 729.198 80.853 729.198 74.0808C729.198 66.3739 723.361 61.1196 714.721 61.1196C712.664 60.9307 710.591 61.1907 708.645 61.8817C706.699 62.5727 704.926 63.6782 703.449 65.1217C701.972 66.5653 700.826 68.3124 700.091 70.2423C699.356 72.1722 699.048 74.2388 699.19 76.2991L686.816 74.547C686.699 59.7186 698.141 49.6764 715.423 49.6764C732 49.6764 742.977 59.1352 742.977 73.1461C742.977 83.0713 737.841 88.5579 729.901 95.3302C724.644 99.767 720.325 103.386 720.208 109.926H707.834C708.068 99.7671 712.618 95.4473 719.977 89.3755ZM706.55 121.602H720.676V135.847H706.55V121.602Z" fill="#A2A1FF" stroke="#A2A1FF" stroke-width="36" stroke-miterlimit="10"/>
<path d="M47.2443 137.872L23.6642 52.7737H37.9056L54.9487 120.829L73.159 52.7737H87.167L105.144 121.179L122.304 52.7737H136.779L112.732 137.872H97.3228L80.163 72.3848L62.653 137.872H47.2443ZM145.474 137.872V45.653H159.132V80.6729C164.502 73.6689 171.039 70.4004 179.91 70.4004C193.218 70.4004 202.557 77.988 202.557 93.3968V137.872H189.016V95.031C189.016 87.3267 184.463 82.4239 175.708 82.4239C166.72 82.4239 159.249 88.494 159.132 98.533V137.872H145.474ZM247.032 139.039C227.538 139.039 215.047 125.382 215.047 104.953C215.047 84.1749 227.654 70.6338 247.032 70.6338C266.41 70.6338 278.9 84.1749 278.9 104.837C278.9 125.498 266.41 139.039 247.032 139.039ZM247.032 127.6C258.472 127.6 265.242 119.078 265.242 104.72C265.242 90.3617 258.472 82.0737 247.032 82.0737C235.475 82.0737 228.705 90.5952 228.705 104.837C228.705 119.195 235.475 127.6 247.032 127.6ZM330.784 137.872L311.757 71.8012H325.882L338.489 124.214L350.512 71.8012H365.454L377.828 123.514L390.201 71.8012H403.859L385.182 137.872H369.773L357.983 88.3773L346.66 137.872H330.784ZM441.172 139.039C422.028 139.039 409.07 126.549 409.07 104.953C409.07 84.1749 420.86 70.6338 440.705 70.6338C459.849 70.6338 472.223 83.3577 470.472 108.339H422.611C423.662 121.763 430.316 128.066 441.289 128.066C450.51 128.066 456.464 123.747 457.865 116.276L469.771 119.195C467.32 131.102 456.464 139.039 441.172 139.039ZM440.471 81.1398C431.25 81.1398 424.479 86.5095 422.845 98.533H456.581C456.814 88.0271 450.861 81.1398 440.471 81.1398ZM527.23 139.039C513.338 139.039 505.401 131.568 505.401 120.479C505.401 107.755 514.856 102.268 526.296 100.167L540.304 97.5992C546.841 96.4318 548.358 93.9804 548.358 90.0115C548.358 84.6418 545.09 81.0231 535.634 81.0231C526.296 81.0231 520.342 84.7585 520.459 92.5796L507.735 91.1788C507.852 78.1047 519.058 70.6338 535.751 70.6338C552.911 70.6338 561.899 77.5211 561.899 90.8286V122.93C561.899 127.366 563.884 128.3 565.985 128.3C567.269 128.3 567.736 128.183 567.969 128.066H568.67V137.639C566.919 138.456 563.65 138.806 562.016 138.806C555.129 138.806 550.46 135.654 550.109 129V127.133C546.724 134.37 537.736 139.039 527.23 139.039ZM530.848 128.533C539.837 128.533 546.491 124.448 548.592 117.561V105.07C546.841 106.004 544.039 106.588 539.837 107.521L530.381 109.389C521.51 111.14 519.292 115.226 519.292 119.428C519.292 125.615 524.078 128.533 530.848 128.533ZM578.321 137.872V71.8012H590.578L591.395 81.7235C594.781 74.7195 600.15 70.984 607.271 70.984C609.606 70.984 611.474 71.2175 612.758 71.6844V84.5251H611.94C610.656 84.0581 608.905 83.8247 607.154 83.8247C598.516 83.8247 592.913 89.3111 591.979 97.9494V137.872H578.321ZM648.533 139.039C629.388 139.039 616.431 126.549 616.431 104.953C616.431 84.1749 628.221 70.6338 648.066 70.6338C667.21 70.6338 679.584 83.3577 677.833 108.339H629.972C631.023 121.763 637.676 128.066 648.649 128.066C657.871 128.066 663.825 123.747 665.225 116.276L677.132 119.195C674.681 131.102 663.825 139.039 648.533 139.039ZM647.832 81.1398C638.61 81.1398 631.84 86.5095 630.206 98.533H663.941C664.175 88.0271 658.221 81.1398 647.832 81.1398ZM701.518 111.957C701.751 101.802 706.304 97.4824 713.658 91.4123C718.794 87.2099 722.88 82.8908 722.88 76.1203C722.88 68.4159 717.043 63.1629 708.405 63.1629C698.482 63.1629 692.646 69.5832 692.879 78.3382L680.506 76.5872C680.389 61.7621 691.829 51.7231 709.105 51.7231C725.681 51.7231 736.654 61.1785 736.654 75.1864C736.654 85.1087 731.518 90.5952 723.58 97.3657C718.327 101.802 714.008 105.42 713.891 111.957H701.518ZM700.233 137.872V123.631H714.358V137.872H700.233Z" fill="#0B1817"/>
</svg>
