<svg width="227" height="77" viewBox="0 0 227 77" fill="none" xmlns="http://www.w3.org/2000/svg">
<path d="M18.7566 54.3786V34.0708L14.4717 34.2468V27.6362L18.7566 27.8121V18.8396L27.6092 18.2484V27.8727L33.1039 27.6364V34.2468L27.6092 34.0709V51.3098C27.6092 53.848 28.0106 54.5575 30.153 54.5575C31.1472 54.5639 32.1321 54.3627 33.0473 53.9662V61.1104C31.0149 61.8115 28.8841 62.17 26.7386 62.1718C21.1874 62.1718 18.7566 59.5154 18.7566 54.3786Z" fill="#A2A1FF" stroke="#0C1818" stroke-width="20" stroke-miterlimit="10"/>
<path d="M38.4404 14.7671H47.525V22.9122H38.4404V14.7671ZM38.497 27.6365H47.4626V61.6415H38.497V27.6365Z" fill="#A2A1FF" stroke="#0C1818" stroke-width="20" stroke-miterlimit="10"/>
<path d="M52.9125 44.6383C52.7328 42.3266 53.0378 40.0023 53.8074 37.8203C54.5769 35.6383 55.7933 33.6487 57.3754 31.984C58.9576 30.3193 60.8693 29.0177 62.983 28.166C65.0968 27.3143 67.3641 26.932 69.634 27.0446C71.3969 26.8265 73.1847 26.9651 74.895 27.4525C76.6053 27.94 78.2048 28.7666 79.6018 29.8852C80.9989 31.0039 82.1662 32.3925 83.0369 33.9718C83.9077 35.551 84.4648 37.29 84.6766 39.0891L76.2251 40.2687C76.1831 39.4319 75.9721 38.613 75.6055 37.8633C75.2389 37.1136 74.7245 36.4492 74.0946 35.9117C73.4647 35.3743 72.7328 34.9753 71.9448 34.7399C71.1568 34.5045 70.3296 34.4376 69.5151 34.5435C64.7722 34.5435 61.8779 38.2036 61.8779 44.6384C61.8779 51.0154 64.7722 54.7332 69.5151 54.7332C70.3745 54.8204 71.2423 54.7238 72.0631 54.4496C72.8839 54.1754 73.6397 53.7296 74.2822 53.1407C74.9247 52.5518 75.4399 51.8327 75.7949 51.0293C76.1499 50.2259 76.3368 49.3558 76.3439 48.4745L84.9081 49.7149C84.7117 51.5665 84.1585 53.3603 83.2803 54.9929C82.4021 56.6256 81.2162 58.065 79.7909 59.2283C78.3656 60.3916 76.729 61.2559 74.9752 61.7715C73.2213 62.287 71.3849 62.4437 69.5716 62.2325C67.3048 62.3436 65.0408 61.9598 62.931 61.1067C60.8212 60.2535 58.9141 58.9507 57.3372 57.2853C55.7603 55.6199 54.5499 53.6302 53.7868 51.4493C53.0238 49.2683 52.7257 46.9463 52.9125 44.6383Z" fill="#A2A1FF" stroke="#0C1818" stroke-width="20" stroke-miterlimit="10"/>
<path d="M90.0684 15.0037H99.0961V40.1514L111.013 27.6368H122.234L109.452 40.1514L123.161 61.6418H112.46L103.2 46.2919L99.096 50.3645V61.6418H90.0684V15.0037Z" fill="#A2A1FF" stroke="#0C1818" stroke-width="20" stroke-miterlimit="10"/>
<path d="M124.976 44.7571C124.766 42.4435 125.046 40.1109 125.795 37.917C126.545 35.723 127.747 33.7188 129.321 32.0398C130.895 30.3607 132.804 29.046 134.918 28.1843C137.033 27.3226 139.304 26.9341 141.579 27.0451C151.878 27.0451 158.243 34.3076 157.141 47.2375H134.004C134.637 52.8444 137.475 55.2066 141.929 55.2066C143.535 55.4275 145.165 55.0383 146.509 54.113C147.852 53.1877 148.816 51.7909 149.216 50.1881L156.972 52.1955C155.955 55.3888 153.895 58.1287 151.134 59.956C148.374 61.7833 145.082 62.5871 141.81 62.2325C139.538 62.3762 137.262 62.0203 135.136 61.1887C133.01 60.3571 131.084 59.0693 129.487 57.4125C127.891 55.7556 126.663 53.7683 125.884 51.585C125.106 49.4016 124.796 47.0732 124.976 44.7571ZM134.06 41.2153H148.057C148.169 40.2752 148.077 39.3217 147.789 38.4215C147.501 37.5213 147.024 36.6963 146.39 36.0043C145.757 35.3124 144.983 34.7702 144.122 34.4158C143.262 34.0614 142.336 33.9034 141.409 33.9528C137.412 33.9528 134.812 36.3726 134.06 41.2153Z" fill="#A2A1FF" stroke="#0C1818" stroke-width="20" stroke-miterlimit="10"/>
<path d="M164.632 54.3786V34.0708L160.347 34.2467V27.6362L164.632 27.8121V18.8396L173.484 18.2484V27.8727L178.979 27.6364V34.2468L173.484 34.0709V51.3098C173.484 53.848 173.886 54.5575 176.028 54.5575C177.022 54.5639 178.007 54.3626 178.922 53.9662V61.1104C176.89 61.8115 174.759 62.17 172.614 62.1718C167.062 62.1718 164.632 59.5154 164.632 54.3786Z" fill="#A2A1FF" stroke="#0C1818" stroke-width="20" stroke-miterlimit="10"/>
<path d="M182.687 51.1345L191.251 50.0125C191.19 50.8449 191.311 51.6806 191.604 52.4595C191.898 53.2384 192.358 53.9411 192.95 54.5169C193.542 55.0927 194.252 55.5272 195.029 55.7891C195.805 56.0511 196.629 56.1339 197.441 56.0317C200.623 56.0317 202.591 54.7337 202.591 52.1957C202.591 48.8904 199.12 48.5932 193.913 47.4136C187.78 45.9369 183.614 43.5776 183.614 37.6736C183.614 31.1206 189.108 27.0452 197.441 27.0452C205.943 27.0452 210.629 31.0601 211.155 37.0823L202.766 38.262C202.802 37.531 202.678 36.801 202.404 36.1248C202.129 35.4486 201.711 34.843 201.179 34.3518C200.648 33.8606 200.016 33.496 199.329 33.2844C198.642 33.0727 197.918 33.0194 197.209 33.1281C194.202 33.1281 192.523 34.5442 192.523 36.491C192.523 39.2657 195.473 39.857 201.087 41.0366C206.757 42.2771 211.788 44.2842 211.788 51.3678C211.788 57.9207 206.757 62.2326 197.096 62.2326C188.012 62.2329 183.269 57.9816 182.687 51.1345Z" fill="#A2A1FF" stroke="#0C1818" stroke-width="20" stroke-miterlimit="10"/>
<path d="M18.7566 54.3786V34.0708L14.4717 34.2468V27.6362L18.7566 27.8121V18.8396L27.6092 18.2484V27.8727L33.1039 27.6364V34.2468L27.6092 34.0709V51.3098C27.6092 53.848 28.0106 54.5575 30.153 54.5575C31.1472 54.5639 32.1321 54.3627 33.0473 53.9662V61.1104C31.0149 61.8115 28.8841 62.17 26.7386 62.1718C21.1874 62.1718 18.7566 59.5154 18.7566 54.3786Z" fill="#A2A1FF"/>
<path d="M38.4404 14.7671H47.525V22.9122H38.4404V14.7671ZM38.497 27.6365H47.4626V61.6415H38.497V27.6365Z" fill="#A2A1FF"/>
<path d="M52.9125 44.6383C52.7328 42.3266 53.0378 40.0023 53.8074 37.8203C54.5769 35.6383 55.7933 33.6487 57.3754 31.984C58.9576 30.3193 60.8693 29.0177 62.983 28.166C65.0968 27.3143 67.3641 26.932 69.634 27.0446C71.3969 26.8265 73.1847 26.9651 74.895 27.4525C76.6053 27.94 78.2048 28.7666 79.6018 29.8852C80.9989 31.0039 82.1662 32.3925 83.0369 33.9718C83.9077 35.551 84.4648 37.29 84.6766 39.0891L76.2251 40.2687C76.1831 39.4319 75.9721 38.613 75.6055 37.8633C75.2389 37.1136 74.7245 36.4492 74.0946 35.9117C73.4647 35.3743 72.7328 34.9753 71.9448 34.7399C71.1568 34.5045 70.3296 34.4376 69.5151 34.5435C64.7722 34.5435 61.8779 38.2036 61.8779 44.6384C61.8779 51.0154 64.7722 54.7332 69.5151 54.7332C70.3745 54.8204 71.2423 54.7238 72.0631 54.4496C72.8839 54.1754 73.6397 53.7296 74.2822 53.1407C74.9247 52.5518 75.4399 51.8327 75.7949 51.0293C76.1499 50.2259 76.3368 49.3558 76.3439 48.4745L84.9081 49.7149C84.7117 51.5665 84.1585 53.3603 83.2803 54.9929C82.4021 56.6256 81.2162 58.065 79.7909 59.2283C78.3656 60.3916 76.729 61.2559 74.9752 61.7715C73.2213 62.287 71.3849 62.4437 69.5716 62.2325C67.3048 62.3436 65.0408 61.9598 62.931 61.1067C60.8212 60.2535 58.9141 58.9507 57.3372 57.2853C55.7603 55.6199 54.5499 53.6302 53.7868 51.4493C53.0238 49.2683 52.7257 46.9463 52.9125 44.6383Z" fill="#A2A1FF"/>
<path d="M90.0684 15.0037H99.0961V40.1514L111.013 27.6368H122.234L109.452 40.1514L123.161 61.6418H112.46L103.2 46.2919L99.096 50.3645V61.6418H90.0684V15.0037Z" fill="#A2A1FF"/>
<path d="M124.976 44.7571C124.766 42.4435 125.046 40.1109 125.795 37.917C126.545 35.723 127.747 33.7188 129.321 32.0398C130.895 30.3607 132.804 29.046 134.918 28.1843C137.033 27.3226 139.304 26.9341 141.579 27.0451C151.878 27.0451 158.243 34.3076 157.141 47.2375H134.004C134.637 52.8444 137.475 55.2066 141.929 55.2066C143.535 55.4275 145.165 55.0383 146.509 54.113C147.852 53.1877 148.816 51.7909 149.216 50.1881L156.972 52.1955C155.955 55.3888 153.895 58.1287 151.134 59.956C148.374 61.7833 145.082 62.5871 141.81 62.2325C139.538 62.3762 137.262 62.0203 135.136 61.1887C133.01 60.3571 131.084 59.0693 129.487 57.4125C127.891 55.7556 126.663 53.7683 125.884 51.585C125.106 49.4016 124.796 47.0732 124.976 44.7571ZM134.06 41.2153H148.057C148.169 40.2752 148.077 39.3217 147.789 38.4215C147.501 37.5213 147.024 36.6963 146.39 36.0043C145.757 35.3124 144.983 34.7702 144.122 34.4158C143.262 34.0614 142.336 33.9034 141.409 33.9528C137.412 33.9528 134.812 36.3726 134.06 41.2153Z" fill="#A2A1FF"/>
<path d="M164.632 54.3786V34.0708L160.347 34.2467V27.6362L164.632 27.8121V18.8396L173.484 18.2484V27.8727L178.979 27.6364V34.2468L173.484 34.0709V51.3098C173.484 53.848 173.886 54.5575 176.028 54.5575C177.022 54.5639 178.007 54.3626 178.922 53.9662V61.1104C176.89 61.8115 174.759 62.17 172.614 62.1718C167.062 62.1718 164.632 59.5154 164.632 54.3786Z" fill="#A2A1FF"/>
<path d="M182.687 51.1345L191.251 50.0125C191.19 50.8449 191.311 51.6806 191.604 52.4595C191.898 53.2384 192.358 53.9411 192.95 54.5169C193.542 55.0927 194.252 55.5272 195.029 55.7891C195.805 56.0511 196.629 56.1339 197.441 56.0317C200.623 56.0317 202.591 54.7337 202.591 52.1957C202.591 48.8904 199.12 48.5932 193.913 47.4136C187.78 45.9369 183.614 43.5776 183.614 37.6736C183.614 31.1206 189.108 27.0452 197.441 27.0452C205.943 27.0452 210.629 31.0601 211.155 37.0823L202.766 38.262C202.802 37.531 202.678 36.801 202.404 36.1248C202.129 35.4486 201.711 34.843 201.179 34.3518C200.648 33.8606 200.016 33.496 199.329 33.2844C198.642 33.0727 197.918 33.0194 197.209 33.1281C194.202 33.1281 192.523 34.5442 192.523 36.491C192.523 39.2657 195.473 39.857 201.087 41.0366C206.757 42.2771 211.788 44.2842 211.788 51.3678C211.788 57.9207 206.757 62.2326 197.096 62.2326C188.012 62.2329 183.269 57.9816 182.687 51.1345Z" fill="#A2A1FF"/>
</svg>
